<?xml version="1.0" encoding="UTF-8" standalone="no"?>
<!DOCTYPE svg PUBLIC "-//W3C//DTD SVG 1.1//EN"
 "http://www.w3.org/Graphics/SVG/1.1/DTD/svg11.dtd">
<!-- Generated by graphviz version 2.43.0 (0)
 -->
<!-- Title: G Pages: 1 -->
<svg width="1238pt" height="2287pt"
 viewBox="0.00 0.00 1238.20 2287.37" xmlns="http://www.w3.org/2000/svg" xmlns:xlink="http://www.w3.org/1999/xlink">
<g id="graph0" class="graph" transform="scale(1 1) rotate(0) translate(21.6 2265.77)">
<title>G</title>
<polygon fill="#111111" stroke="transparent" points="-21.6,21.6 -21.6,-2265.77 1216.6,-2265.77 1216.6,21.6 -21.6,21.6"/>
<!-- ../data/dbUser.js -->
<g id="node1" class="node">
<title>../data/dbUser.js</title>
<path fill="none" stroke="#cfffac" d="M837.33,-71.17C837.33,-71.17 738.67,-71.17 738.67,-71.17 734.83,-71.17 731,-67.33 731,-63.5 731,-63.5 731,-55.83 731,-55.83 731,-52 734.83,-48.17 738.67,-48.17 738.67,-48.17 837.33,-48.17 837.33,-48.17 841.17,-48.17 845,-52 845,-55.83 845,-55.83 845,-63.5 845,-63.5 845,-67.33 841.17,-71.17 837.33,-71.17"/>
<text text-anchor="middle" x="788" y="-55.97" font-family="Arial" font-size="14.00" fill="#cfffac">../data/dbUser.js</text>
</g>
<!-- ModulesEducation.js -->
<g id="node2" class="node">
<title>ModulesEducation.js</title>
<path fill="none" stroke="#c6c5fe" d="M851.33,-645.17C851.33,-645.17 724.67,-645.17 724.67,-645.17 720.83,-645.17 717,-641.33 717,-637.5 717,-637.5 717,-629.83 717,-629.83 717,-626 720.83,-622.17 724.67,-622.17 724.67,-622.17 851.33,-622.17 851.33,-622.17 855.17,-622.17 859,-626 859,-629.83 859,-629.83 859,-637.5 859,-637.5 859,-641.33 855.17,-645.17 851.33,-645.17"/>
<text text-anchor="middle" x="788" y="-629.97" font-family="Arial" font-size="14.00" fill="#c6c5fe">ModulesEducation.js</text>
</g>
<!-- contents/education/education.js -->
<g id="node3" class="node">
<title>contents/education/education.js</title>
<path fill="none" stroke="#cfffac" d="M1140.33,-645.17C1140.33,-645.17 949.67,-645.17 949.67,-645.17 945.83,-645.17 942,-641.33 942,-637.5 942,-637.5 942,-629.83 942,-629.83 942,-626 945.83,-622.17 949.67,-622.17 949.67,-622.17 1140.33,-622.17 1140.33,-622.17 1144.17,-622.17 1148,-626 1148,-629.83 1148,-629.83 1148,-637.5 1148,-637.5 1148,-641.33 1144.17,-645.17 1140.33,-645.17"/>
<text text-anchor="middle" x="1045" y="-629.97" font-family="Arial" font-size="14.00" fill="#cfffac">contents/education/education.js</text>
</g>
<!-- ModulesEducation.js&#45;&gt;contents/education/education.js -->
<g id="edge1" class="edge">
<title>ModulesEducation.js&#45;&gt;contents/education/education.js</title>
<path fill="none" stroke="#757575" d="M859.02,-633.67C881.44,-633.67 906.85,-633.67 931.51,-633.67"/>
<polygon fill="#757575" stroke="#757575" points="931.65,-637.17 941.65,-633.67 931.65,-630.17 931.65,-637.17"/>
</g>
<!-- ModulesPage.js -->
<g id="node4" class="node">
<title>ModulesPage.js</title>
<path fill="none" stroke="#c6c5fe" d="M332.33,-317.17C332.33,-317.17 234.67,-317.17 234.67,-317.17 230.83,-317.17 227,-313.33 227,-309.5 227,-309.5 227,-301.83 227,-301.83 227,-298 230.83,-294.17 234.67,-294.17 234.67,-294.17 332.33,-294.17 332.33,-294.17 336.17,-294.17 340,-298 340,-301.83 340,-301.83 340,-309.5 340,-309.5 340,-313.33 336.17,-317.17 332.33,-317.17"/>
<text text-anchor="middle" x="283.5" y="-301.97" font-family="Arial" font-size="14.00" fill="#c6c5fe">ModulesPage.js</text>
</g>
<!-- contents/project_page/Blog.js -->
<g id="node5" class="node">
<title>contents/project_page/Blog.js</title>
<path fill="none" stroke="#cfffac" d="M631.83,-522.17C631.83,-522.17 453.17,-522.17 453.17,-522.17 449.33,-522.17 445.5,-518.33 445.5,-514.5 445.5,-514.5 445.5,-506.83 445.5,-506.83 445.5,-503 449.33,-499.17 453.17,-499.17 453.17,-499.17 631.83,-499.17 631.83,-499.17 635.67,-499.17 639.5,-503 639.5,-506.83 639.5,-506.83 639.5,-514.5 639.5,-514.5 639.5,-518.33 635.67,-522.17 631.83,-522.17"/>
<text text-anchor="middle" x="542.5" y="-506.97" font-family="Arial" font-size="14.00" fill="#cfffac">contents/project_page/Blog.js</text>
</g>
<!-- ModulesPage.js&#45;&gt;contents/project_page/Blog.js -->
<g id="edge2" class="edge">
<title>ModulesPage.js&#45;&gt;contents/project_page/Blog.js</title>
<path fill="none" stroke="#757575" d="M288.34,-317.63C299.79,-351.18 337.11,-446.5 404,-489.67 413.57,-495.85 424.29,-500.46 435.4,-503.88"/>
<polygon fill="#757575" stroke="#757575" points="434.67,-507.31 445.24,-506.58 436.53,-500.56 434.67,-507.31"/>
</g>
<!-- contents/project_page/Coffeecong.js -->
<g id="node6" class="node">
<title>contents/project_page/Coffeecong.js</title>
<path fill="none" stroke="#cfffac" d="M652.83,-481.17C652.83,-481.17 432.17,-481.17 432.17,-481.17 428.33,-481.17 424.5,-477.33 424.5,-473.5 424.5,-473.5 424.5,-465.83 424.5,-465.83 424.5,-462 428.33,-458.17 432.17,-458.17 432.17,-458.17 652.83,-458.17 652.83,-458.17 656.67,-458.17 660.5,-462 660.5,-465.83 660.5,-465.83 660.5,-473.5 660.5,-473.5 660.5,-477.33 656.67,-481.17 652.83,-481.17"/>
<text text-anchor="middle" x="542.5" y="-465.97" font-family="Arial" font-size="14.00" fill="#cfffac">contents/project_page/Coffeecong.js</text>
</g>
<!-- ModulesPage.js&#45;&gt;contents/project_page/Coffeecong.js -->
<g id="edge3" class="edge">
<title>ModulesPage.js&#45;&gt;contents/project_page/Coffeecong.js</title>
<path fill="none" stroke="#757575" d="M290.39,-317.37C305.17,-345.4 346.78,-416.43 404,-448.67 407.73,-450.77 411.6,-452.68 415.57,-454.41"/>
<polygon fill="#757575" stroke="#757575" points="414.44,-457.73 425.02,-458.16 417.02,-451.22 414.44,-457.73"/>
</g>
<!-- contents/project_page/GanttChart.js -->
<g id="node7" class="node">
<title>contents/project_page/GanttChart.js</title>
<path fill="none" stroke="#cfffac" d="M651.33,-440.17C651.33,-440.17 433.67,-440.17 433.67,-440.17 429.83,-440.17 426,-436.33 426,-432.5 426,-432.5 426,-424.83 426,-424.83 426,-421 429.83,-417.17 433.67,-417.17 433.67,-417.17 651.33,-417.17 651.33,-417.17 655.17,-417.17 659,-421 659,-424.83 659,-424.83 659,-432.5 659,-432.5 659,-436.33 655.17,-440.17 651.33,-440.17"/>
<text text-anchor="middle" x="542.5" y="-424.97" font-family="Arial" font-size="14.00" fill="#cfffac">contents/project_page/GanttChart.js</text>
</g>
<!-- ModulesPage.js&#45;&gt;contents/project_page/GanttChart.js -->
<g id="edge4" class="edge">
<title>ModulesPage.js&#45;&gt;contents/project_page/GanttChart.js</title>
<path fill="none" stroke="#757575" d="M293.95,-317.18C312.52,-338.91 356.13,-385.77 404,-407.67 409.28,-410.08 414.77,-412.23 420.4,-414.13"/>
<polygon fill="#757575" stroke="#757575" points="419.4,-417.49 429.98,-417.12 421.48,-410.8 419.4,-417.49"/>
</g>
<!-- contents/project_page/Mentees.js -->
<g id="node8" class="node">
<title>contents/project_page/Mentees.js</title>
<path fill="none" stroke="#cfffac" d="M644.33,-399.17C644.33,-399.17 440.67,-399.17 440.67,-399.17 436.83,-399.17 433,-395.33 433,-391.5 433,-391.5 433,-383.83 433,-383.83 433,-380 436.83,-376.17 440.67,-376.17 440.67,-376.17 644.33,-376.17 644.33,-376.17 648.17,-376.17 652,-380 652,-383.83 652,-383.83 652,-391.5 652,-391.5 652,-395.33 648.17,-399.17 644.33,-399.17"/>
<text text-anchor="middle" x="542.5" y="-383.97" font-family="Arial" font-size="14.00" fill="#cfffac">contents/project_page/Mentees.js</text>
</g>
<!-- ModulesPage.js&#45;&gt;contents/project_page/Mentees.js -->
<g id="edge5" class="edge">
<title>ModulesPage.js&#45;&gt;contents/project_page/Mentees.js</title>
<path fill="none" stroke="#757575" d="M302.74,-317.34C325.51,-331.34 366.09,-354.45 404,-366.67 412.61,-369.44 421.64,-371.85 430.79,-373.95"/>
<polygon fill="#757575" stroke="#757575" points="430.23,-377.41 440.75,-376.1 431.71,-370.57 430.23,-377.41"/>
</g>
<!-- contents/project_page/MkDocumentifyJS.js -->
<g id="node9" class="node">
<title>contents/project_page/MkDocumentifyJS.js</title>
<path fill="none" stroke="#cfffac" d="M673.33,-358.17C673.33,-358.17 411.67,-358.17 411.67,-358.17 407.83,-358.17 404,-354.33 404,-350.5 404,-350.5 404,-342.83 404,-342.83 404,-339 407.83,-335.17 411.67,-335.17 411.67,-335.17 673.33,-335.17 673.33,-335.17 677.17,-335.17 681,-339 681,-342.83 681,-342.83 681,-350.5 681,-350.5 681,-354.33 677.17,-358.17 673.33,-358.17"/>
<text text-anchor="middle" x="542.5" y="-342.97" font-family="Arial" font-size="14.00" fill="#cfffac">contents/project_page/MkDocumentifyJS.js</text>
</g>
<!-- ModulesPage.js&#45;&gt;contents/project_page/MkDocumentifyJS.js -->
<g id="edge6" class="edge">
<title>ModulesPage.js&#45;&gt;contents/project_page/MkDocumentifyJS.js</title>
<path fill="none" stroke="#757575" d="M340.1,-315.14C360.22,-318.53 383.13,-322.33 404,-325.67 420.29,-328.27 437.68,-330.99 454.42,-333.56"/>
<polygon fill="#757575" stroke="#757575" points="454.33,-337.09 464.74,-335.14 455.39,-330.17 454.33,-337.09"/>
</g>
<!-- contents/project_page/Penli.js -->
<g id="node10" class="node">
<title>contents/project_page/Penli.js</title>
<path fill="none" stroke="#cfffac" d="M633.33,-317.17C633.33,-317.17 451.67,-317.17 451.67,-317.17 447.83,-317.17 444,-313.33 444,-309.5 444,-309.5 444,-301.83 444,-301.83 444,-298 447.83,-294.17 451.67,-294.17 451.67,-294.17 633.33,-294.17 633.33,-294.17 637.17,-294.17 641,-298 641,-301.83 641,-301.83 641,-309.5 641,-309.5 641,-313.33 637.17,-317.17 633.33,-317.17"/>
<text text-anchor="middle" x="542.5" y="-301.97" font-family="Arial" font-size="14.00" fill="#cfffac">contents/project_page/Penli.js</text>
</g>
<!-- ModulesPage.js&#45;&gt;contents/project_page/Penli.js -->
<g id="edge7" class="edge">
<title>ModulesPage.js&#45;&gt;contents/project_page/Penli.js</title>
<path fill="none" stroke="#757575" d="M340.27,-305.67C367.57,-305.67 401.42,-305.67 433.51,-305.67"/>
<polygon fill="#757575" stroke="#757575" points="433.86,-309.17 443.86,-305.67 433.86,-302.17 433.86,-309.17"/>
</g>
<!-- contents/project_page/ProjectNarang.js -->
<g id="node11" class="node">
<title>contents/project_page/ProjectNarang.js</title>
<path fill="none" stroke="#c6c5fe" d="M661.33,-71.17C661.33,-71.17 423.67,-71.17 423.67,-71.17 419.83,-71.17 416,-67.33 416,-63.5 416,-63.5 416,-55.83 416,-55.83 416,-52 419.83,-48.17 423.67,-48.17 423.67,-48.17 661.33,-48.17 661.33,-48.17 665.17,-48.17 669,-52 669,-55.83 669,-55.83 669,-63.5 669,-63.5 669,-67.33 665.17,-71.17 661.33,-71.17"/>
<text text-anchor="middle" x="542.5" y="-55.97" font-family="Arial" font-size="14.00" fill="#c6c5fe">contents/project_page/ProjectNarang.js</text>
</g>
<!-- ModulesPage.js&#45;&gt;contents/project_page/ProjectNarang.js -->
<g id="edge8" class="edge">
<title>ModulesPage.js&#45;&gt;contents/project_page/ProjectNarang.js</title>
<path fill="none" stroke="#757575" d="M286.77,-294.1C294.88,-256.13 326.21,-134.55 404,-79.67 405.7,-78.47 407.44,-77.33 409.22,-76.24"/>
<polygon fill="#757575" stroke="#757575" points="411.28,-79.11 418.4,-71.26 407.94,-72.95 411.28,-79.11"/>
</g>
<!-- contents/project_page/Scheduler.js -->
<g id="node12" class="node">
<title>contents/project_page/Scheduler.js</title>
<path fill="none" stroke="#cfffac" d="M648.33,-276.17C648.33,-276.17 436.67,-276.17 436.67,-276.17 432.83,-276.17 429,-272.33 429,-268.5 429,-268.5 429,-260.83 429,-260.83 429,-257 432.83,-253.17 436.67,-253.17 436.67,-253.17 648.33,-253.17 648.33,-253.17 652.17,-253.17 656,-257 656,-260.83 656,-260.83 656,-268.5 656,-268.5 656,-272.33 652.17,-276.17 648.33,-276.17"/>
<text text-anchor="middle" x="542.5" y="-260.97" font-family="Arial" font-size="14.00" fill="#cfffac">contents/project_page/Scheduler.js</text>
</g>
<!-- ModulesPage.js&#45;&gt;contents/project_page/Scheduler.js -->
<g id="edge9" class="edge">
<title>ModulesPage.js&#45;&gt;contents/project_page/Scheduler.js</title>
<path fill="none" stroke="#757575" d="M340.07,-295.55C360.19,-291.98 383.1,-288.02 404,-284.67 418.75,-282.3 434.41,-279.91 449.68,-277.64"/>
<polygon fill="#757575" stroke="#757575" points="450.26,-281.09 459.64,-276.17 449.24,-274.17 450.26,-281.09"/>
</g>
<!-- contents/project_page/Solitaire.js -->
<g id="node13" class="node">
<title>contents/project_page/Solitaire.js</title>
<path fill="none" stroke="#cfffac" d="M642.33,-235.17C642.33,-235.17 442.67,-235.17 442.67,-235.17 438.83,-235.17 435,-231.33 435,-227.5 435,-227.5 435,-219.83 435,-219.83 435,-216 438.83,-212.17 442.67,-212.17 442.67,-212.17 642.33,-212.17 642.33,-212.17 646.17,-212.17 650,-216 650,-219.83 650,-219.83 650,-227.5 650,-227.5 650,-231.33 646.17,-235.17 642.33,-235.17"/>
<text text-anchor="middle" x="542.5" y="-219.97" font-family="Arial" font-size="14.00" fill="#cfffac">contents/project_page/Solitaire.js</text>
</g>
<!-- ModulesPage.js&#45;&gt;contents/project_page/Solitaire.js -->
<g id="edge10" class="edge">
<title>ModulesPage.js&#45;&gt;contents/project_page/Solitaire.js</title>
<path fill="none" stroke="#757575" d="M302.3,-294C324.94,-279.74 365.73,-255.99 404,-243.67 411.35,-241.3 419,-239.22 426.78,-237.38"/>
<polygon fill="#757575" stroke="#757575" points="427.68,-240.76 436.68,-235.17 426.16,-233.93 427.68,-240.76"/>
</g>
<!-- contents/project_page/TreeParser.js -->
<g id="node14" class="node">
<title>contents/project_page/TreeParser.js</title>
<path fill="none" stroke="#cfffac" d="M651.33,-194.17C651.33,-194.17 433.67,-194.17 433.67,-194.17 429.83,-194.17 426,-190.33 426,-186.5 426,-186.5 426,-178.83 426,-178.83 426,-175 429.83,-171.17 433.67,-171.17 433.67,-171.17 651.33,-171.17 651.33,-171.17 655.17,-171.17 659,-175 659,-178.83 659,-178.83 659,-186.5 659,-186.5 659,-190.33 655.17,-194.17 651.33,-194.17"/>
<text text-anchor="middle" x="542.5" y="-178.97" font-family="Arial" font-size="14.00" fill="#cfffac">contents/project_page/TreeParser.js</text>
</g>
<!-- ModulesPage.js&#45;&gt;contents/project_page/TreeParser.js -->
<g id="edge11" class="edge">
<title>ModulesPage.js&#45;&gt;contents/project_page/TreeParser.js</title>
<path fill="none" stroke="#757575" d="M293.91,-294.01C312.41,-272.01 355.9,-224.6 404,-202.67 408.19,-200.76 412.51,-199.02 416.94,-197.44"/>
<polygon fill="#757575" stroke="#757575" points="418.33,-200.67 426.75,-194.24 416.16,-194.02 418.33,-200.67"/>
</g>
<!-- contents/project_page/Tutorial.js -->
<g id="node15" class="node">
<title>contents/project_page/Tutorial.js</title>
<path fill="none" stroke="#cfffac" d="M640.83,-153.17C640.83,-153.17 444.17,-153.17 444.17,-153.17 440.33,-153.17 436.5,-149.33 436.5,-145.5 436.5,-145.5 436.5,-137.83 436.5,-137.83 436.5,-134 440.33,-130.17 444.17,-130.17 444.17,-130.17 640.83,-130.17 640.83,-130.17 644.67,-130.17 648.5,-134 648.5,-137.83 648.5,-137.83 648.5,-145.5 648.5,-145.5 648.5,-149.33 644.67,-153.17 640.83,-153.17"/>
<text text-anchor="middle" x="542.5" y="-137.97" font-family="Arial" font-size="14.00" fill="#cfffac">contents/project_page/Tutorial.js</text>
</g>
<!-- ModulesPage.js&#45;&gt;contents/project_page/Tutorial.js -->
<g id="edge12" class="edge">
<title>ModulesPage.js&#45;&gt;contents/project_page/Tutorial.js</title>
<path fill="none" stroke="#757575" d="M290.35,-293.86C305.04,-265.58 346.48,-193.94 404,-161.67 411.1,-157.68 418.73,-154.4 426.61,-151.7"/>
<polygon fill="#757575" stroke="#757575" points="427.81,-155 436.33,-148.7 425.74,-148.31 427.81,-155"/>
</g>
<!-- contents/project_page/Typer.js -->
<g id="node16" class="node">
<title>contents/project_page/Typer.js</title>
<path fill="none" stroke="#cfffac" d="M634.83,-112.17C634.83,-112.17 450.17,-112.17 450.17,-112.17 446.33,-112.17 442.5,-108.33 442.5,-104.5 442.5,-104.5 442.5,-96.83 442.5,-96.83 442.5,-93 446.33,-89.17 450.17,-89.17 450.17,-89.17 634.83,-89.17 634.83,-89.17 638.67,-89.17 642.5,-93 642.5,-96.83 642.5,-96.83 642.5,-104.5 642.5,-104.5 642.5,-108.33 638.67,-112.17 634.83,-112.17"/>
<text text-anchor="middle" x="542.5" y="-96.97" font-family="Arial" font-size="14.00" fill="#cfffac">contents/project_page/Typer.js</text>
</g>
<!-- ModulesPage.js&#45;&gt;contents/project_page/Typer.js -->
<g id="edge13" class="edge">
<title>ModulesPage.js&#45;&gt;contents/project_page/Typer.js</title>
<path fill="none" stroke="#757575" d="M288.14,-294.1C299.31,-260.75 336.44,-164.06 404,-120.67 412.77,-115.04 422.49,-110.74 432.6,-107.48"/>
<polygon fill="#757575" stroke="#757575" points="433.74,-110.79 442.39,-104.67 431.81,-104.06 433.74,-110.79"/>
</g>
<!-- contents/project_page/ProjectNarang.js&#45;&gt;../data/dbUser.js -->
<g id="edge72" class="edge">
<title>contents/project_page/ProjectNarang.js&#45;&gt;../data/dbUser.js</title>
<path fill="none" stroke="#757575" d="M669.17,-59.67C686.92,-59.67 704.55,-59.67 720.56,-59.67"/>
<polygon fill="#757575" stroke="#757575" points="720.83,-63.17 730.83,-59.67 720.83,-56.17 720.83,-63.17"/>
</g>
<!-- ModulesPart.js -->
<g id="node17" class="node">
<title>ModulesPart.js</title>
<path fill="none" stroke="#ff6c60" d="M329.33,-1167.17C329.33,-1167.17 237.67,-1167.17 237.67,-1167.17 233.83,-1167.17 230,-1163.33 230,-1159.5 230,-1159.5 230,-1151.83 230,-1151.83 230,-1148 233.83,-1144.17 237.67,-1144.17 237.67,-1144.17 329.33,-1144.17 329.33,-1144.17 333.17,-1144.17 337,-1148 337,-1151.83 337,-1151.83 337,-1159.5 337,-1159.5 337,-1163.33 333.17,-1167.17 329.33,-1167.17"/>
<text text-anchor="middle" x="283.5" y="-1151.97" font-family="Arial" font-size="14.00" fill="#ff6c60">ModulesPart.js</text>
</g>
<!-- contents/template_part/parts.js -->
<g id="node18" class="node">
<title>contents/template_part/parts.js</title>
<path fill="none" stroke="#ff6c60" d="M635.83,-1239.17C635.83,-1239.17 449.17,-1239.17 449.17,-1239.17 445.33,-1239.17 441.5,-1235.33 441.5,-1231.5 441.5,-1231.5 441.5,-1223.83 441.5,-1223.83 441.5,-1220 445.33,-1216.17 449.17,-1216.17 449.17,-1216.17 635.83,-1216.17 635.83,-1216.17 639.67,-1216.17 643.5,-1220 643.5,-1223.83 643.5,-1223.83 643.5,-1231.5 643.5,-1231.5 643.5,-1235.33 639.67,-1239.17 635.83,-1239.17"/>
<text text-anchor="middle" x="542.5" y="-1223.97" font-family="Arial" font-size="14.00" fill="#ff6c60">contents/template_part/parts.js</text>
</g>
<!-- ModulesPart.js&#45;&gt;contents/template_part/parts.js -->
<g id="edge14" class="edge">
<title>ModulesPart.js&#45;&gt;contents/template_part/parts.js</title>
<path fill="none" stroke="#757575" d="M325.79,-1167.24C370.66,-1179.81 442.39,-1199.9 490.68,-1213.43"/>
<polygon fill="#757575" stroke="#757575" points="489.74,-1216.8 500.31,-1216.13 491.63,-1210.06 489.74,-1216.8"/>
</g>
<!-- router.js -->
<g id="node82" class="node">
<title>router.js</title>
<path fill="none" stroke="#ff6c60" d="M812.83,-1424.17C812.83,-1424.17 763.17,-1424.17 763.17,-1424.17 759.33,-1424.17 755.5,-1420.33 755.5,-1416.5 755.5,-1416.5 755.5,-1408.83 755.5,-1408.83 755.5,-1405 759.33,-1401.17 763.17,-1401.17 763.17,-1401.17 812.83,-1401.17 812.83,-1401.17 816.67,-1401.17 820.5,-1405 820.5,-1408.83 820.5,-1408.83 820.5,-1416.5 820.5,-1416.5 820.5,-1420.33 816.67,-1424.17 812.83,-1424.17"/>
<text text-anchor="middle" x="788" y="-1408.97" font-family="Arial" font-size="14.00" fill="#ff6c60">router.js</text>
</g>
<!-- contents/template_part/parts.js&#45;&gt;router.js -->
<g id="edge81" class="edge">
<title>contents/template_part/parts.js&#45;&gt;router.js</title>
<path fill="none" stroke="#757575" d="M643.51,-1232.65C657.37,-1237.1 670.44,-1243.79 681,-1253.67 727.6,-1297.27 672.44,-1346.98 717,-1392.67 724.56,-1400.42 734.89,-1405.22 745.3,-1408.18"/>
<polygon fill="#757575" stroke="#757575" points="744.68,-1411.63 755.21,-1410.49 746.27,-1404.81 744.68,-1411.63"/>
</g>
<!-- ModulesPreview.js -->
<g id="node19" class="node">
<title>ModulesPreview.js</title>
<path fill="none" stroke="#c6c5fe" d="M844.83,-399.17C844.83,-399.17 731.17,-399.17 731.17,-399.17 727.33,-399.17 723.5,-395.33 723.5,-391.5 723.5,-391.5 723.5,-383.83 723.5,-383.83 723.5,-380 727.33,-376.17 731.17,-376.17 731.17,-376.17 844.83,-376.17 844.83,-376.17 848.67,-376.17 852.5,-380 852.5,-383.83 852.5,-383.83 852.5,-391.5 852.5,-391.5 852.5,-395.33 848.67,-399.17 844.83,-399.17"/>
<text text-anchor="middle" x="788" y="-383.97" font-family="Arial" font-size="14.00" fill="#c6c5fe">ModulesPreview.js</text>
</g>
<!-- contents/project_previews/Coffeecong.js -->
<g id="node20" class="node">
<title>contents/project_previews/Coffeecong.js</title>
<path fill="none" stroke="#cfffac" d="M1166.83,-276.17C1166.83,-276.17 923.17,-276.17 923.17,-276.17 919.33,-276.17 915.5,-272.33 915.5,-268.5 915.5,-268.5 915.5,-260.83 915.5,-260.83 915.5,-257 919.33,-253.17 923.17,-253.17 923.17,-253.17 1166.83,-253.17 1166.83,-253.17 1170.67,-253.17 1174.5,-257 1174.5,-260.83 1174.5,-260.83 1174.5,-268.5 1174.5,-268.5 1174.5,-272.33 1170.67,-276.17 1166.83,-276.17"/>
<text text-anchor="middle" x="1045" y="-260.97" font-family="Arial" font-size="14.00" fill="#cfffac">contents/project_previews/Coffeecong.js</text>
</g>
<!-- ModulesPreview.js&#45;&gt;contents/project_previews/Coffeecong.js -->
<g id="edge15" class="edge">
<title>ModulesPreview.js&#45;&gt;contents/project_previews/Coffeecong.js</title>
<path fill="none" stroke="#757575" d="M800.34,-375.84C825.25,-349.99 883.46,-290.27 895,-284.67 898.66,-282.89 902.42,-281.25 906.27,-279.75"/>
<polygon fill="#757575" stroke="#757575" points="907.74,-282.94 915.98,-276.28 905.39,-276.35 907.74,-282.94"/>
</g>
<!-- contents/project_previews/GanttChart.js -->
<g id="node21" class="node">
<title>contents/project_previews/GanttChart.js</title>
<path fill="none" stroke="#cfffac" d="M1165.83,-235.17C1165.83,-235.17 924.17,-235.17 924.17,-235.17 920.33,-235.17 916.5,-231.33 916.5,-227.5 916.5,-227.5 916.5,-219.83 916.5,-219.83 916.5,-216 920.33,-212.17 924.17,-212.17 924.17,-212.17 1165.83,-212.17 1165.83,-212.17 1169.67,-212.17 1173.5,-216 1173.5,-219.83 1173.5,-219.83 1173.5,-227.5 1173.5,-227.5 1173.5,-231.33 1169.67,-235.17 1165.83,-235.17"/>
<text text-anchor="middle" x="1045" y="-219.97" font-family="Arial" font-size="14.00" fill="#cfffac">contents/project_previews/GanttChart.js</text>
</g>
<!-- ModulesPreview.js&#45;&gt;contents/project_previews/GanttChart.js -->
<g id="edge16" class="edge">
<title>ModulesPreview.js&#45;&gt;contents/project_previews/GanttChart.js</title>
<path fill="none" stroke="#757575" d="M802.66,-375.98C817.79,-362.53 842.24,-339.26 859,-315.67 879.71,-286.5 865.89,-264.46 895,-243.67 898.81,-240.95 902.81,-238.51 906.96,-236.33"/>
<polygon fill="#757575" stroke="#757575" points="908.72,-239.38 916.28,-231.96 905.74,-233.04 908.72,-239.38"/>
</g>
<!-- contents/project_previews/Mentees.js -->
<g id="node22" class="node">
<title>contents/project_previews/Mentees.js</title>
<path fill="none" stroke="#cfffac" d="M1158.33,-194.17C1158.33,-194.17 931.67,-194.17 931.67,-194.17 927.83,-194.17 924,-190.33 924,-186.5 924,-186.5 924,-178.83 924,-178.83 924,-175 927.83,-171.17 931.67,-171.17 931.67,-171.17 1158.33,-171.17 1158.33,-171.17 1162.17,-171.17 1166,-175 1166,-178.83 1166,-178.83 1166,-186.5 1166,-186.5 1166,-190.33 1162.17,-194.17 1158.33,-194.17"/>
<text text-anchor="middle" x="1045" y="-178.97" font-family="Arial" font-size="14.00" fill="#cfffac">contents/project_previews/Mentees.js</text>
</g>
<!-- ModulesPreview.js&#45;&gt;contents/project_previews/Mentees.js -->
<g id="edge17" class="edge">
<title>ModulesPreview.js&#45;&gt;contents/project_previews/Mentees.js</title>
<path fill="none" stroke="#757575" d="M803.93,-375.96C819.71,-362.84 844.3,-340.19 859,-315.67 886.09,-270.45 854.61,-236.54 895,-202.67 900.84,-197.77 907.29,-193.72 914.14,-190.41"/>
<polygon fill="#757575" stroke="#757575" points="915.87,-193.47 923.69,-186.32 913.12,-187.04 915.87,-193.47"/>
</g>
<!-- contents/project_previews/MkDocumentifyJS.js -->
<g id="node23" class="node">
<title>contents/project_previews/MkDocumentifyJS.js</title>
<path fill="none" stroke="#cfffac" d="M1187.33,-153.17C1187.33,-153.17 902.67,-153.17 902.67,-153.17 898.83,-153.17 895,-149.33 895,-145.5 895,-145.5 895,-137.83 895,-137.83 895,-134 898.83,-130.17 902.67,-130.17 902.67,-130.17 1187.33,-130.17 1187.33,-130.17 1191.17,-130.17 1195,-134 1195,-137.83 1195,-137.83 1195,-145.5 1195,-145.5 1195,-149.33 1191.17,-153.17 1187.33,-153.17"/>
<text text-anchor="middle" x="1045" y="-137.97" font-family="Arial" font-size="14.00" fill="#cfffac">contents/project_previews/MkDocumentifyJS.js</text>
</g>
<!-- ModulesPreview.js&#45;&gt;contents/project_previews/MkDocumentifyJS.js -->
<g id="edge18" class="edge">
<title>ModulesPreview.js&#45;&gt;contents/project_previews/MkDocumentifyJS.js</title>
<path fill="none" stroke="#757575" d="M804.6,-375.94C820.71,-362.97 845.36,-340.6 859,-315.67 892.73,-254 842.97,-208.92 895,-161.67 895.98,-160.78 896.98,-159.92 897.99,-159.08"/>
<polygon fill="#757575" stroke="#757575" points="900.08,-161.89 906.12,-153.2 895.97,-156.23 900.08,-161.89"/>
</g>
<!-- contents/project_previews/Penli.js -->
<g id="node24" class="node">
<title>contents/project_previews/Penli.js</title>
<path fill="none" stroke="#cfffac" d="M1147.33,-604.17C1147.33,-604.17 942.67,-604.17 942.67,-604.17 938.83,-604.17 935,-600.33 935,-596.5 935,-596.5 935,-588.83 935,-588.83 935,-585 938.83,-581.17 942.67,-581.17 942.67,-581.17 1147.33,-581.17 1147.33,-581.17 1151.17,-581.17 1155,-585 1155,-588.83 1155,-588.83 1155,-596.5 1155,-596.5 1155,-600.33 1151.17,-604.17 1147.33,-604.17"/>
<text text-anchor="middle" x="1045" y="-588.97" font-family="Arial" font-size="14.00" fill="#cfffac">contents/project_previews/Penli.js</text>
</g>
<!-- ModulesPreview.js&#45;&gt;contents/project_previews/Penli.js -->
<g id="edge19" class="edge">
<title>ModulesPreview.js&#45;&gt;contents/project_previews/Penli.js</title>
<path fill="none" stroke="#757575" d="M791.95,-399.64C800.9,-433.19 831.15,-528.54 895,-571.67 904.12,-577.83 914.26,-582.53 924.86,-586.08"/>
<polygon fill="#757575" stroke="#757575" points="924.11,-589.51 934.7,-589.03 926.12,-582.81 924.11,-589.51"/>
</g>
<!-- contents/project_previews/ProjectNarang.js -->
<g id="node25" class="node">
<title>contents/project_previews/ProjectNarang.js</title>
<path fill="none" stroke="#cfffac" d="M1175.33,-563.17C1175.33,-563.17 914.67,-563.17 914.67,-563.17 910.83,-563.17 907,-559.33 907,-555.5 907,-555.5 907,-547.83 907,-547.83 907,-544 910.83,-540.17 914.67,-540.17 914.67,-540.17 1175.33,-540.17 1175.33,-540.17 1179.17,-540.17 1183,-544 1183,-547.83 1183,-547.83 1183,-555.5 1183,-555.5 1183,-559.33 1179.17,-563.17 1175.33,-563.17"/>
<text text-anchor="middle" x="1045" y="-547.97" font-family="Arial" font-size="14.00" fill="#cfffac">contents/project_previews/ProjectNarang.js</text>
</g>
<!-- ModulesPreview.js&#45;&gt;contents/project_previews/ProjectNarang.js -->
<g id="edge20" class="edge">
<title>ModulesPreview.js&#45;&gt;contents/project_previews/ProjectNarang.js</title>
<path fill="none" stroke="#757575" d="M793.82,-399.39C806.02,-427.47 841.08,-498.6 895,-530.67 898.28,-532.62 901.67,-534.41 905.15,-536.07"/>
<polygon fill="#757575" stroke="#757575" points="903.98,-539.37 914.55,-540.12 906.75,-532.95 903.98,-539.37"/>
</g>
<!-- contents/project_previews/Scheduler.js -->
<g id="node26" class="node">
<title>contents/project_previews/Scheduler.js</title>
<path fill="none" stroke="#cfffac" d="M1162.33,-522.17C1162.33,-522.17 927.67,-522.17 927.67,-522.17 923.83,-522.17 920,-518.33 920,-514.5 920,-514.5 920,-506.83 920,-506.83 920,-503 923.83,-499.17 927.67,-499.17 927.67,-499.17 1162.33,-499.17 1162.33,-499.17 1166.17,-499.17 1170,-503 1170,-506.83 1170,-506.83 1170,-514.5 1170,-514.5 1170,-518.33 1166.17,-522.17 1162.33,-522.17"/>
<text text-anchor="middle" x="1045" y="-506.97" font-family="Arial" font-size="14.00" fill="#cfffac">contents/project_previews/Scheduler.js</text>
</g>
<!-- ModulesPreview.js&#45;&gt;contents/project_previews/Scheduler.js -->
<g id="edge21" class="edge">
<title>ModulesPreview.js&#45;&gt;contents/project_previews/Scheduler.js</title>
<path fill="none" stroke="#757575" d="M797.05,-399.24C812.94,-421.07 850.68,-468.09 895,-489.67 899.92,-492.06 905.03,-494.21 910.27,-496.12"/>
<polygon fill="#757575" stroke="#757575" points="909.22,-499.46 919.82,-499.33 911.46,-492.83 909.22,-499.46"/>
</g>
<!-- contents/project_previews/Solitaire.js -->
<g id="node27" class="node">
<title>contents/project_previews/Solitaire.js</title>
<path fill="none" stroke="#cfffac" d="M1156.83,-481.17C1156.83,-481.17 933.17,-481.17 933.17,-481.17 929.33,-481.17 925.5,-477.33 925.5,-473.5 925.5,-473.5 925.5,-465.83 925.5,-465.83 925.5,-462 929.33,-458.17 933.17,-458.17 933.17,-458.17 1156.83,-458.17 1156.83,-458.17 1160.67,-458.17 1164.5,-462 1164.5,-465.83 1164.5,-465.83 1164.5,-473.5 1164.5,-473.5 1164.5,-477.33 1160.67,-481.17 1156.83,-481.17"/>
<text text-anchor="middle" x="1045" y="-465.97" font-family="Arial" font-size="14.00" fill="#cfffac">contents/project_previews/Solitaire.js</text>
</g>
<!-- ModulesPreview.js&#45;&gt;contents/project_previews/Solitaire.js -->
<g id="edge22" class="edge">
<title>ModulesPreview.js&#45;&gt;contents/project_previews/Solitaire.js</title>
<path fill="none" stroke="#757575" d="M804.59,-399.23C824.49,-413.34 860.46,-436.8 895,-448.67 902.9,-451.38 911.15,-453.75 919.55,-455.81"/>
<polygon fill="#757575" stroke="#757575" points="918.92,-459.26 929.45,-458.09 920.49,-452.43 918.92,-459.26"/>
</g>
<!-- contents/project_previews/TreeParser.js -->
<g id="node28" class="node">
<title>contents/project_previews/TreeParser.js</title>
<path fill="none" stroke="#cfffac" d="M1165.83,-440.17C1165.83,-440.17 924.17,-440.17 924.17,-440.17 920.33,-440.17 916.5,-436.33 916.5,-432.5 916.5,-432.5 916.5,-424.83 916.5,-424.83 916.5,-421 920.33,-417.17 924.17,-417.17 924.17,-417.17 1165.83,-417.17 1165.83,-417.17 1169.67,-417.17 1173.5,-421 1173.5,-424.83 1173.5,-424.83 1173.5,-432.5 1173.5,-432.5 1173.5,-436.33 1169.67,-440.17 1165.83,-440.17"/>
<text text-anchor="middle" x="1045" y="-424.97" font-family="Arial" font-size="14.00" fill="#cfffac">contents/project_previews/TreeParser.js</text>
</g>
<!-- ModulesPreview.js&#45;&gt;contents/project_previews/TreeParser.js -->
<g id="edge23" class="edge">
<title>ModulesPreview.js&#45;&gt;contents/project_previews/TreeParser.js</title>
<path fill="none" stroke="#757575" d="M847.51,-399.21C862.93,-402.11 879.57,-405.13 895,-407.67 911.81,-410.44 929.72,-413.16 947.08,-415.67"/>
<polygon fill="#757575" stroke="#757575" points="946.83,-419.17 957.23,-417.13 947.83,-412.25 946.83,-419.17"/>
</g>
<!-- contents/project_previews/Tutorial.js -->
<g id="node29" class="node">
<title>contents/project_previews/Tutorial.js</title>
<path fill="none" stroke="#cfffac" d="M1154.83,-399.17C1154.83,-399.17 935.17,-399.17 935.17,-399.17 931.33,-399.17 927.5,-395.33 927.5,-391.5 927.5,-391.5 927.5,-383.83 927.5,-383.83 927.5,-380 931.33,-376.17 935.17,-376.17 935.17,-376.17 1154.83,-376.17 1154.83,-376.17 1158.67,-376.17 1162.5,-380 1162.5,-383.83 1162.5,-383.83 1162.5,-391.5 1162.5,-391.5 1162.5,-395.33 1158.67,-399.17 1154.83,-399.17"/>
<text text-anchor="middle" x="1045" y="-383.97" font-family="Arial" font-size="14.00" fill="#cfffac">contents/project_previews/Tutorial.js</text>
</g>
<!-- ModulesPreview.js&#45;&gt;contents/project_previews/Tutorial.js -->
<g id="edge24" class="edge">
<title>ModulesPreview.js&#45;&gt;contents/project_previews/Tutorial.js</title>
<path fill="none" stroke="#757575" d="M852.69,-387.67C872.33,-387.67 894.68,-387.67 917.02,-387.67"/>
<polygon fill="#757575" stroke="#757575" points="917.27,-391.17 927.27,-387.67 917.27,-384.17 917.27,-391.17"/>
</g>
<!-- contents/project_previews/Typer.js -->
<g id="node30" class="node">
<title>contents/project_previews/Typer.js</title>
<path fill="none" stroke="#cfffac" d="M1148.83,-358.17C1148.83,-358.17 941.17,-358.17 941.17,-358.17 937.33,-358.17 933.5,-354.33 933.5,-350.5 933.5,-350.5 933.5,-342.83 933.5,-342.83 933.5,-339 937.33,-335.17 941.17,-335.17 941.17,-335.17 1148.83,-335.17 1148.83,-335.17 1152.67,-335.17 1156.5,-339 1156.5,-342.83 1156.5,-342.83 1156.5,-350.5 1156.5,-350.5 1156.5,-354.33 1152.67,-358.17 1148.83,-358.17"/>
<text text-anchor="middle" x="1045" y="-342.97" font-family="Arial" font-size="14.00" fill="#cfffac">contents/project_previews/Typer.js</text>
</g>
<!-- ModulesPreview.js&#45;&gt;contents/project_previews/Typer.js -->
<g id="edge25" class="edge">
<title>ModulesPreview.js&#45;&gt;contents/project_previews/Typer.js</title>
<path fill="none" stroke="#757575" d="M843.9,-376.12C860.3,-372.85 878.34,-369.43 895,-366.67 909.89,-364.2 925.66,-361.82 941.14,-359.62"/>
<polygon fill="#757575" stroke="#757575" points="941.85,-363.06 951.27,-358.21 940.88,-356.13 941.85,-363.06"/>
</g>
<!-- contents/project_previews/WithMe.js -->
<g id="node31" class="node">
<title>contents/project_previews/WithMe.js</title>
<path fill="none" stroke="#cfffac" d="M1155.83,-317.17C1155.83,-317.17 934.17,-317.17 934.17,-317.17 930.33,-317.17 926.5,-313.33 926.5,-309.5 926.5,-309.5 926.5,-301.83 926.5,-301.83 926.5,-298 930.33,-294.17 934.17,-294.17 934.17,-294.17 1155.83,-294.17 1155.83,-294.17 1159.67,-294.17 1163.5,-298 1163.5,-301.83 1163.5,-301.83 1163.5,-309.5 1163.5,-309.5 1163.5,-313.33 1159.67,-317.17 1155.83,-317.17"/>
<text text-anchor="middle" x="1045" y="-301.97" font-family="Arial" font-size="14.00" fill="#cfffac">contents/project_previews/WithMe.js</text>
</g>
<!-- ModulesPreview.js&#45;&gt;contents/project_previews/WithMe.js -->
<g id="edge26" class="edge">
<title>ModulesPreview.js&#45;&gt;contents/project_previews/WithMe.js</title>
<path fill="none" stroke="#757575" d="M804.2,-376.13C823.98,-361.76 860.12,-337.67 895,-325.67 901.87,-323.3 909.01,-321.22 916.28,-319.38"/>
<polygon fill="#757575" stroke="#757575" points="917.33,-322.72 926.26,-317.01 915.72,-315.91 917.33,-322.72"/>
</g>
<!-- ModulesTemplatePage.js -->
<g id="node32" class="node">
<title>ModulesTemplatePage.js</title>
<path fill="none" stroke="#ff6c60" d="M360.33,-645.17C360.33,-645.17 206.67,-645.17 206.67,-645.17 202.83,-645.17 199,-641.33 199,-637.5 199,-637.5 199,-629.83 199,-629.83 199,-626 202.83,-622.17 206.67,-622.17 206.67,-622.17 360.33,-622.17 360.33,-622.17 364.17,-622.17 368,-626 368,-629.83 368,-629.83 368,-637.5 368,-637.5 368,-641.33 364.17,-645.17 360.33,-645.17"/>
<text text-anchor="middle" x="283.5" y="-629.97" font-family="Arial" font-size="14.00" fill="#ff6c60">ModulesTemplatePage.js</text>
</g>
<!-- contents/template_page/404.js -->
<g id="node33" class="node">
<title>contents/template_page/404.js</title>
<path fill="none" stroke="#cfffac" d="M635.33,-727.17C635.33,-727.17 449.67,-727.17 449.67,-727.17 445.83,-727.17 442,-723.33 442,-719.5 442,-719.5 442,-711.83 442,-711.83 442,-708 445.83,-704.17 449.67,-704.17 449.67,-704.17 635.33,-704.17 635.33,-704.17 639.17,-704.17 643,-708 643,-711.83 643,-711.83 643,-719.5 643,-719.5 643,-723.33 639.17,-727.17 635.33,-727.17"/>
<text text-anchor="middle" x="542.5" y="-711.97" font-family="Arial" font-size="14.00" fill="#cfffac">contents/template_page/404.js</text>
</g>
<!-- ModulesTemplatePage.js&#45;&gt;contents/template_page/404.js -->
<g id="edge27" class="edge">
<title>ModulesTemplatePage.js&#45;&gt;contents/template_page/404.js</title>
<path fill="none" stroke="#757575" d="M302.74,-645.34C325.51,-659.34 366.09,-682.45 404,-694.67 412.96,-697.55 422.37,-700.05 431.9,-702.2"/>
<polygon fill="#757575" stroke="#757575" points="431.34,-705.66 441.85,-704.33 432.8,-698.82 431.34,-705.66"/>
</g>
<!-- contents/template_page/about.js -->
<g id="node34" class="node">
<title>contents/template_page/about.js</title>
<path fill="none" stroke="#cfffac" d="M640.83,-686.17C640.83,-686.17 444.17,-686.17 444.17,-686.17 440.33,-686.17 436.5,-682.33 436.5,-678.5 436.5,-678.5 436.5,-670.83 436.5,-670.83 436.5,-667 440.33,-663.17 444.17,-663.17 444.17,-663.17 640.83,-663.17 640.83,-663.17 644.67,-663.17 648.5,-667 648.5,-670.83 648.5,-670.83 648.5,-678.5 648.5,-678.5 648.5,-682.33 644.67,-686.17 640.83,-686.17"/>
<text text-anchor="middle" x="542.5" y="-670.97" font-family="Arial" font-size="14.00" fill="#cfffac">contents/template_page/about.js</text>
</g>
<!-- ModulesTemplatePage.js&#45;&gt;contents/template_page/about.js -->
<g id="edge28" class="edge">
<title>ModulesTemplatePage.js&#45;&gt;contents/template_page/about.js</title>
<path fill="none" stroke="#757575" d="M352.41,-645.21C369.26,-648.02 387.28,-650.99 404,-653.67 420.29,-656.27 437.68,-658.99 454.42,-661.56"/>
<polygon fill="#757575" stroke="#757575" points="454.33,-665.09 464.74,-663.14 455.39,-658.17 454.33,-665.09"/>
</g>
<!-- contents/template_page/home.js -->
<g id="node35" class="node">
<title>contents/template_page/home.js</title>
<path fill="none" stroke="#c6c5fe" d="M641.33,-604.17C641.33,-604.17 443.67,-604.17 443.67,-604.17 439.83,-604.17 436,-600.33 436,-596.5 436,-596.5 436,-588.83 436,-588.83 436,-585 439.83,-581.17 443.67,-581.17 443.67,-581.17 641.33,-581.17 641.33,-581.17 645.17,-581.17 649,-585 649,-588.83 649,-588.83 649,-596.5 649,-596.5 649,-600.33 645.17,-604.17 641.33,-604.17"/>
<text text-anchor="middle" x="542.5" y="-588.97" font-family="Arial" font-size="14.00" fill="#c6c5fe">contents/template_page/home.js</text>
</g>
<!-- ModulesTemplatePage.js&#45;&gt;contents/template_page/home.js -->
<g id="edge29" class="edge">
<title>ModulesTemplatePage.js&#45;&gt;contents/template_page/home.js</title>
<path fill="none" stroke="#757575" d="M348.01,-622.15C366.08,-618.97 385.8,-615.59 404,-612.67 418.75,-610.3 434.41,-607.91 449.68,-605.64"/>
<polygon fill="#757575" stroke="#757575" points="450.26,-609.09 459.64,-604.17 449.24,-602.17 450.26,-609.09"/>
</g>
<!-- contents/template_page/portfolio.js -->
<g id="node36" class="node">
<title>contents/template_page/portfolio.js</title>
<path fill="none" stroke="#ff6c60" d="M648.33,-563.17C648.33,-563.17 436.67,-563.17 436.67,-563.17 432.83,-563.17 429,-559.33 429,-555.5 429,-555.5 429,-547.83 429,-547.83 429,-544 432.83,-540.17 436.67,-540.17 436.67,-540.17 648.33,-540.17 648.33,-540.17 652.17,-540.17 656,-544 656,-547.83 656,-547.83 656,-555.5 656,-555.5 656,-559.33 652.17,-563.17 648.33,-563.17"/>
<text text-anchor="middle" x="542.5" y="-547.97" font-family="Arial" font-size="14.00" fill="#ff6c60">contents/template_page/portfolio.js</text>
</g>
<!-- ModulesTemplatePage.js&#45;&gt;contents/template_page/portfolio.js -->
<g id="edge30" class="edge">
<title>ModulesTemplatePage.js&#45;&gt;contents/template_page/portfolio.js</title>
<path fill="none" stroke="#757575" d="M305.03,-621.95C333.6,-605.84 384.09,-578.08 404,-571.67 411.35,-569.3 419,-567.22 426.78,-565.38"/>
<polygon fill="#757575" stroke="#757575" points="427.68,-568.76 436.68,-563.17 426.16,-561.93 427.68,-568.76"/>
</g>
<!-- contents/template_page/resume.js -->
<g id="node37" class="node">
<title>contents/template_page/resume.js</title>
<path fill="none" stroke="#c6c5fe" d="M646.83,-645.17C646.83,-645.17 438.17,-645.17 438.17,-645.17 434.33,-645.17 430.5,-641.33 430.5,-637.5 430.5,-637.5 430.5,-629.83 430.5,-629.83 430.5,-626 434.33,-622.17 438.17,-622.17 438.17,-622.17 646.83,-622.17 646.83,-622.17 650.67,-622.17 654.5,-626 654.5,-629.83 654.5,-629.83 654.5,-637.5 654.5,-637.5 654.5,-641.33 650.67,-645.17 646.83,-645.17"/>
<text text-anchor="middle" x="542.5" y="-629.97" font-family="Arial" font-size="14.00" fill="#c6c5fe">contents/template_page/resume.js</text>
</g>
<!-- ModulesTemplatePage.js&#45;&gt;contents/template_page/resume.js -->
<g id="edge31" class="edge">
<title>ModulesTemplatePage.js&#45;&gt;contents/template_page/resume.js</title>
<path fill="none" stroke="#757575" d="M368.3,-633.67C384.83,-633.67 402.48,-633.67 419.97,-633.67"/>
<polygon fill="#757575" stroke="#757575" points="420.24,-637.17 430.24,-633.67 420.24,-630.17 420.24,-637.17"/>
</g>
<!-- core/Module.js -->
<g id="node80" class="node">
<title>core/Module.js</title>
<path fill="none" stroke="#ff6c60" d="M832.83,-164.17C832.83,-164.17 743.17,-164.17 743.17,-164.17 739.33,-164.17 735.5,-160.33 735.5,-156.5 735.5,-156.5 735.5,-148.83 735.5,-148.83 735.5,-145 739.33,-141.17 743.17,-141.17 743.17,-141.17 832.83,-141.17 832.83,-141.17 836.67,-141.17 840.5,-145 840.5,-148.83 840.5,-148.83 840.5,-156.5 840.5,-156.5 840.5,-160.33 836.67,-164.17 832.83,-164.17"/>
<text text-anchor="middle" x="788" y="-148.97" font-family="Arial" font-size="14.00" fill="#ff6c60">core/Module.js</text>
</g>
<!-- contents/template_page/home.js&#45;&gt;core/Module.js -->
<g id="edge73" class="edge">
<title>contents/template_page/home.js&#45;&gt;core/Module.js</title>
<path fill="none" stroke="#757575" d="M649.29,-591.21C661.19,-587.02 672.18,-580.77 681,-571.67 727.28,-523.94 696.04,-337.76 717,-274.67 729.85,-236 755.68,-195.91 772.12,-172.68"/>
<polygon fill="#757575" stroke="#757575" points="775.11,-174.52 778.12,-164.36 769.43,-170.43 775.11,-174.52"/>
</g>
<!-- contents/template_page/portfolio.js&#45;&gt;core/Module.js -->
<g id="edge74" class="edge">
<title>contents/template_page/portfolio.js&#45;&gt;core/Module.js</title>
<path fill="none" stroke="#757575" d="M656.17,-547.3C665.38,-543.29 673.87,-537.88 681,-530.67 721.38,-489.81 698.37,-329.01 717,-274.67 730.21,-236.13 755.94,-196 772.25,-172.73"/>
<polygon fill="#757575" stroke="#757575" points="775.24,-174.56 778.2,-164.39 769.54,-170.5 775.24,-174.56"/>
</g>
<!-- pages.js -->
<g id="node81" class="node">
<title>pages.js</title>
<path fill="none" stroke="#ff6c60" d="M155.33,-645.17C155.33,-645.17 103.67,-645.17 103.67,-645.17 99.83,-645.17 96,-641.33 96,-637.5 96,-637.5 96,-629.83 96,-629.83 96,-626 99.83,-622.17 103.67,-622.17 103.67,-622.17 155.33,-622.17 155.33,-622.17 159.17,-622.17 163,-626 163,-629.83 163,-629.83 163,-637.5 163,-637.5 163,-641.33 159.17,-645.17 155.33,-645.17"/>
<text text-anchor="middle" x="129.5" y="-629.97" font-family="Arial" font-size="14.00" fill="#ff6c60">pages.js</text>
</g>
<!-- contents/template_page/portfolio.js&#45;&gt;pages.js -->
<g id="edge75" class="edge">
<title>contents/template_page/portfolio.js&#45;&gt;pages.js</title>
<path fill="none" stroke="#757575" d="M457.74,-563.18C387.96,-573.58 286.25,-590.63 199,-612.67 190.51,-614.81 181.5,-617.37 172.91,-619.94"/>
<polygon fill="#757575" stroke="#757575" points="171.6,-616.68 163.06,-622.96 173.65,-623.38 171.6,-616.68"/>
</g>
<!-- contents/template_page/resume.js&#45;&gt;ModulesEducation.js -->
<g id="edge76" class="edge">
<title>contents/template_page/resume.js&#45;&gt;ModulesEducation.js</title>
<path fill="none" stroke="#757575" d="M654.56,-633.67C672.12,-633.67 689.97,-633.67 706.65,-633.67"/>
<polygon fill="#757575" stroke="#757575" points="706.86,-637.17 716.86,-633.67 706.86,-630.17 706.86,-637.17"/>
</g>
<!-- contents/template_page/resume.js&#45;&gt;ModulesPreview.js -->
<g id="edge77" class="edge">
<title>contents/template_page/resume.js&#45;&gt;ModulesPreview.js</title>
<path fill="none" stroke="#757575" d="M654.76,-626.64C664.14,-623.15 673.06,-618.59 681,-612.67 749.42,-561.62 775.38,-455.23 783.66,-409.42"/>
<polygon fill="#757575" stroke="#757575" points="787.14,-409.83 785.36,-399.39 780.23,-408.66 787.14,-409.83"/>
</g>
<!-- ModulesTimeLine.js -->
<g id="node38" class="node">
<title>ModulesTimeLine.js</title>
<path fill="none" stroke="#c6c5fe" d="M849.33,-307.17C849.33,-307.17 726.67,-307.17 726.67,-307.17 722.83,-307.17 719,-303.33 719,-299.5 719,-299.5 719,-291.83 719,-291.83 719,-288 722.83,-284.17 726.67,-284.17 726.67,-284.17 849.33,-284.17 849.33,-284.17 853.17,-284.17 857,-288 857,-291.83 857,-291.83 857,-299.5 857,-299.5 857,-303.33 853.17,-307.17 849.33,-307.17"/>
<text text-anchor="middle" x="788" y="-291.97" font-family="Arial" font-size="14.00" fill="#c6c5fe">ModulesTimeLine.js</text>
</g>
<!-- contents/template_page/resume.js&#45;&gt;ModulesTimeLine.js -->
<g id="edge78" class="edge">
<title>contents/template_page/resume.js&#45;&gt;ModulesTimeLine.js</title>
<path fill="none" stroke="#757575" d="M654.8,-629.82C664.53,-625.77 673.51,-620.2 681,-612.67 758.89,-534.29 667.77,-465.59 717,-366.67 727.54,-345.49 746.78,-326.68 762.43,-313.76"/>
<polygon fill="#757575" stroke="#757575" points="765.02,-316.16 770.67,-307.2 760.67,-310.69 765.02,-316.16"/>
</g>
<!-- Svg.js -->
<g id="node40" class="node">
<title>Svg.js</title>
<path fill="none" stroke="#c6c5fe" d="M807.33,-1383.17C807.33,-1383.17 768.67,-1383.17 768.67,-1383.17 764.83,-1383.17 761,-1379.33 761,-1375.5 761,-1375.5 761,-1367.83 761,-1367.83 761,-1364 764.83,-1360.17 768.67,-1360.17 768.67,-1360.17 807.33,-1360.17 807.33,-1360.17 811.17,-1360.17 815,-1364 815,-1367.83 815,-1367.83 815,-1375.5 815,-1375.5 815,-1379.33 811.17,-1383.17 807.33,-1383.17"/>
<text text-anchor="middle" x="788" y="-1367.97" font-family="Arial" font-size="14.00" fill="#c6c5fe">Svg.js</text>
</g>
<!-- contents/template_page/resume.js&#45;&gt;Svg.js -->
<g id="edge79" class="edge">
<title>contents/template_page/resume.js&#45;&gt;Svg.js</title>
<path fill="none" stroke="#757575" d="M654.75,-636.67C664.49,-640.66 673.49,-646.17 681,-653.67 782.22,-754.67 787.28,-1240.96 787.12,-1349.96"/>
<polygon fill="#757575" stroke="#757575" points="783.62,-1350.07 787.09,-1360.08 790.62,-1350.09 783.62,-1350.07"/>
</g>
<!-- contents/template_page/resume.js&#45;&gt;core/Module.js -->
<g id="edge80" class="edge">
<title>contents/template_page/resume.js&#45;&gt;core/Module.js</title>
<path fill="none" stroke="#757575" d="M654.78,-630.26C664.58,-626.14 673.58,-620.44 681,-612.67 733.18,-558.06 693.7,-346.52 717,-274.67 729.57,-235.91 755.49,-195.85 772.02,-172.65"/>
<polygon fill="#757575" stroke="#757575" points="775.01,-174.49 778.05,-164.34 769.34,-170.38 775.01,-174.49"/>
</g>
<!-- contents/timeline/TimeLine.js -->
<g id="node39" class="node">
<title>contents/timeline/TimeLine.js</title>
<path fill="none" stroke="#cfffac" d="M1133.33,-112.17C1133.33,-112.17 956.67,-112.17 956.67,-112.17 952.83,-112.17 949,-108.33 949,-104.5 949,-104.5 949,-96.83 949,-96.83 949,-93 952.83,-89.17 956.67,-89.17 956.67,-89.17 1133.33,-89.17 1133.33,-89.17 1137.17,-89.17 1141,-93 1141,-96.83 1141,-96.83 1141,-104.5 1141,-104.5 1141,-108.33 1137.17,-112.17 1133.33,-112.17"/>
<text text-anchor="middle" x="1045" y="-96.97" font-family="Arial" font-size="14.00" fill="#cfffac">contents/timeline/TimeLine.js</text>
</g>
<!-- ModulesTimeLine.js&#45;&gt;contents/timeline/TimeLine.js -->
<g id="edge32" class="edge">
<title>ModulesTimeLine.js&#45;&gt;contents/timeline/TimeLine.js</title>
<path fill="none" stroke="#757575" d="M795.67,-284.04C817.68,-245.78 887.01,-125.9 895,-120.67 908.08,-112.1 923.19,-106.45 938.67,-102.82"/>
<polygon fill="#757575" stroke="#757575" points="939.79,-106.16 948.87,-100.71 938.37,-99.31 939.79,-106.16"/>
</g>
<!-- svg/Antd.js -->
<g id="node41" class="node">
<title>svg/Antd.js</title>
<path fill="none" stroke="#cfffac" d="M1078.83,-1014.17C1078.83,-1014.17 1011.17,-1014.17 1011.17,-1014.17 1007.33,-1014.17 1003.5,-1010.33 1003.5,-1006.5 1003.5,-1006.5 1003.5,-998.83 1003.5,-998.83 1003.5,-995 1007.33,-991.17 1011.17,-991.17 1011.17,-991.17 1078.83,-991.17 1078.83,-991.17 1082.67,-991.17 1086.5,-995 1086.5,-998.83 1086.5,-998.83 1086.5,-1006.5 1086.5,-1006.5 1086.5,-1010.33 1082.67,-1014.17 1078.83,-1014.17"/>
<text text-anchor="middle" x="1045" y="-998.97" font-family="Arial" font-size="14.00" fill="#cfffac">svg/Antd.js</text>
</g>
<!-- Svg.js&#45;&gt;svg/Antd.js -->
<g id="edge33" class="edge">
<title>Svg.js&#45;&gt;svg/Antd.js</title>
<path fill="none" stroke="#757575" d="M788.46,-1359.99C786.84,-1310.19 787.66,-1113.94 895,-1022.67 921.73,-999.94 961.48,-995.56 993.21,-996.54"/>
<polygon fill="#757575" stroke="#757575" points="993.04,-1000.03 1003.2,-997.03 993.38,-993.04 993.04,-1000.03"/>
</g>
<!-- svg/ApacheMaven.js -->
<g id="node42" class="node">
<title>svg/ApacheMaven.js</title>
<path fill="none" stroke="#cfffac" d="M1108.33,-973.17C1108.33,-973.17 981.67,-973.17 981.67,-973.17 977.83,-973.17 974,-969.33 974,-965.5 974,-965.5 974,-957.83 974,-957.83 974,-954 977.83,-950.17 981.67,-950.17 981.67,-950.17 1108.33,-950.17 1108.33,-950.17 1112.17,-950.17 1116,-954 1116,-957.83 1116,-957.83 1116,-965.5 1116,-965.5 1116,-969.33 1112.17,-973.17 1108.33,-973.17"/>
<text text-anchor="middle" x="1045" y="-957.97" font-family="Arial" font-size="14.00" fill="#cfffac">svg/ApacheMaven.js</text>
</g>
<!-- Svg.js&#45;&gt;svg/ApacheMaven.js -->
<g id="edge34" class="edge">
<title>Svg.js&#45;&gt;svg/ApacheMaven.js</title>
<path fill="none" stroke="#757575" d="M790.47,-1359.81C798.08,-1300.2 835.1,-1034.14 895,-981.67 913.72,-965.27 939.17,-958.31 963.74,-956.04"/>
<polygon fill="#757575" stroke="#757575" points="964.08,-959.52 973.82,-955.35 963.61,-952.54 964.08,-959.52"/>
</g>
<!-- svg/Blockchain.js -->
<g id="node43" class="node">
<title>svg/Blockchain.js</title>
<path fill="none" stroke="#cfffac" d="M1097.33,-932.17C1097.33,-932.17 992.67,-932.17 992.67,-932.17 988.83,-932.17 985,-928.33 985,-924.5 985,-924.5 985,-916.83 985,-916.83 985,-913 988.83,-909.17 992.67,-909.17 992.67,-909.17 1097.33,-909.17 1097.33,-909.17 1101.17,-909.17 1105,-913 1105,-916.83 1105,-916.83 1105,-924.5 1105,-924.5 1105,-928.33 1101.17,-932.17 1097.33,-932.17"/>
<text text-anchor="middle" x="1045" y="-916.97" font-family="Arial" font-size="14.00" fill="#cfffac">svg/Blockchain.js</text>
</g>
<!-- Svg.js&#45;&gt;svg/Blockchain.js -->
<g id="edge35" class="edge">
<title>Svg.js&#45;&gt;svg/Blockchain.js</title>
<path fill="none" stroke="#757575" d="M790.14,-1359.85C796.48,-1296.68 829.49,-999.48 895,-940.67 916.36,-921.49 946.87,-915.1 974.73,-914.05"/>
<polygon fill="#757575" stroke="#757575" points="974.91,-917.55 984.85,-913.89 974.8,-910.55 974.91,-917.55"/>
</g>
<!-- svg/Chocolatey.js -->
<g id="node44" class="node">
<title>svg/Chocolatey.js</title>
<path fill="none" stroke="#cfffac" d="M1098.33,-891.17C1098.33,-891.17 991.67,-891.17 991.67,-891.17 987.83,-891.17 984,-887.33 984,-883.5 984,-883.5 984,-875.83 984,-875.83 984,-872 987.83,-868.17 991.67,-868.17 991.67,-868.17 1098.33,-868.17 1098.33,-868.17 1102.17,-868.17 1106,-872 1106,-875.83 1106,-875.83 1106,-883.5 1106,-883.5 1106,-887.33 1102.17,-891.17 1098.33,-891.17"/>
<text text-anchor="middle" x="1045" y="-875.97" font-family="Arial" font-size="14.00" fill="#cfffac">svg/Chocolatey.js</text>
</g>
<!-- Svg.js&#45;&gt;svg/Chocolatey.js -->
<g id="edge36" class="edge">
<title>Svg.js&#45;&gt;svg/Chocolatey.js</title>
<path fill="none" stroke="#757575" d="M789.85,-1360.07C794.97,-1293.91 823.78,-964.91 895,-899.67 916,-880.43 946.16,-873.96 973.86,-872.86"/>
<polygon fill="#757575" stroke="#757575" points="974,-876.36 983.93,-872.69 973.88,-869.36 974,-876.36"/>
</g>
<!-- svg/Css.js -->
<g id="node45" class="node">
<title>svg/Css.js</title>
<path fill="none" stroke="#cfffac" d="M1076.33,-850.17C1076.33,-850.17 1013.67,-850.17 1013.67,-850.17 1009.83,-850.17 1006,-846.33 1006,-842.5 1006,-842.5 1006,-834.83 1006,-834.83 1006,-831 1009.83,-827.17 1013.67,-827.17 1013.67,-827.17 1076.33,-827.17 1076.33,-827.17 1080.17,-827.17 1084,-831 1084,-834.83 1084,-834.83 1084,-842.5 1084,-842.5 1084,-846.33 1080.17,-850.17 1076.33,-850.17"/>
<text text-anchor="middle" x="1045" y="-834.97" font-family="Arial" font-size="14.00" fill="#cfffac">svg/Css.js</text>
</g>
<!-- Svg.js&#45;&gt;svg/Css.js -->
<g id="edge37" class="edge">
<title>Svg.js&#45;&gt;svg/Css.js</title>
<path fill="none" stroke="#757575" d="M789.64,-1359.99C793.68,-1290.35 818.16,-930.28 895,-858.67 921.53,-833.94 963.16,-830.16 995.68,-831.88"/>
<polygon fill="#757575" stroke="#757575" points="995.67,-835.39 1005.89,-832.61 996.17,-828.41 995.67,-835.39"/>
</g>
<!-- svg/Django.js -->
<g id="node46" class="node">
<title>svg/Django.js</title>
<path fill="none" stroke="#cfffac" d="M1086.33,-809.17C1086.33,-809.17 1003.67,-809.17 1003.67,-809.17 999.83,-809.17 996,-805.33 996,-801.5 996,-801.5 996,-793.83 996,-793.83 996,-790 999.83,-786.17 1003.67,-786.17 1003.67,-786.17 1086.33,-786.17 1086.33,-786.17 1090.17,-786.17 1094,-790 1094,-793.83 1094,-793.83 1094,-801.5 1094,-801.5 1094,-805.33 1090.17,-809.17 1086.33,-809.17"/>
<text text-anchor="middle" x="1045" y="-793.97" font-family="Arial" font-size="14.00" fill="#cfffac">svg/Django.js</text>
</g>
<!-- Svg.js&#45;&gt;svg/Django.js -->
<g id="edge38" class="edge">
<title>Svg.js&#45;&gt;svg/Django.js</title>
<path fill="none" stroke="#757575" d="M789.44,-1360.03C792.47,-1287.3 812.47,-895.73 895,-817.67 918.76,-795.19 954.97,-789.93 985.75,-790.41"/>
<polygon fill="#757575" stroke="#757575" points="985.83,-793.92 995.95,-790.78 986.08,-786.92 985.83,-793.92"/>
</g>
<!-- svg/Docker.js -->
<g id="node47" class="node">
<title>svg/Docker.js</title>
<path fill="none" stroke="#cfffac" d="M1085.83,-768.17C1085.83,-768.17 1004.17,-768.17 1004.17,-768.17 1000.33,-768.17 996.5,-764.33 996.5,-760.5 996.5,-760.5 996.5,-752.83 996.5,-752.83 996.5,-749 1000.33,-745.17 1004.17,-745.17 1004.17,-745.17 1085.83,-745.17 1085.83,-745.17 1089.67,-745.17 1093.5,-749 1093.5,-752.83 1093.5,-752.83 1093.5,-760.5 1093.5,-760.5 1093.5,-764.33 1089.67,-768.17 1085.83,-768.17"/>
<text text-anchor="middle" x="1045" y="-752.97" font-family="Arial" font-size="14.00" fill="#cfffac">svg/Docker.js</text>
</g>
<!-- Svg.js&#45;&gt;svg/Docker.js -->
<g id="edge39" class="edge">
<title>Svg.js&#45;&gt;svg/Docker.js</title>
<path fill="none" stroke="#757575" d="M789.29,-1359.68C791.4,-1282.93 806.92,-861.05 895,-776.67 918.71,-753.96 955.09,-748.73 985.96,-749.3"/>
<polygon fill="#757575" stroke="#757575" points="986.07,-752.81 996.2,-749.69 986.34,-745.81 986.07,-752.81"/>
</g>
<!-- svg/Express.js -->
<g id="node48" class="node">
<title>svg/Express.js</title>
<path fill="none" stroke="#cfffac" d="M1089.33,-727.17C1089.33,-727.17 1000.67,-727.17 1000.67,-727.17 996.83,-727.17 993,-723.33 993,-719.5 993,-719.5 993,-711.83 993,-711.83 993,-708 996.83,-704.17 1000.67,-704.17 1000.67,-704.17 1089.33,-704.17 1089.33,-704.17 1093.17,-704.17 1097,-708 1097,-711.83 1097,-711.83 1097,-719.5 1097,-719.5 1097,-723.33 1093.17,-727.17 1089.33,-727.17"/>
<text text-anchor="middle" x="1045" y="-711.97" font-family="Arial" font-size="14.00" fill="#cfffac">svg/Express.js</text>
</g>
<!-- Svg.js&#45;&gt;svg/Express.js -->
<g id="edge40" class="edge">
<title>Svg.js&#45;&gt;svg/Express.js</title>
<path fill="none" stroke="#757575" d="M789.13,-1360.15C790.29,-1281.74 801.03,-826.7 895,-735.67 917.82,-713.56 952.63,-707.95 982.87,-708.16"/>
<polygon fill="#757575" stroke="#757575" points="982.83,-711.66 992.92,-708.43 983.02,-704.66 982.83,-711.66"/>
</g>
<!-- svg/Ffmpeg.js -->
<g id="node49" class="node">
<title>svg/Ffmpeg.js</title>
<path fill="none" stroke="#cfffac" d="M1087.83,-686.17C1087.83,-686.17 1002.17,-686.17 1002.17,-686.17 998.33,-686.17 994.5,-682.33 994.5,-678.5 994.5,-678.5 994.5,-670.83 994.5,-670.83 994.5,-667 998.33,-663.17 1002.17,-663.17 1002.17,-663.17 1087.83,-663.17 1087.83,-663.17 1091.67,-663.17 1095.5,-667 1095.5,-670.83 1095.5,-670.83 1095.5,-678.5 1095.5,-678.5 1095.5,-682.33 1091.67,-686.17 1087.83,-686.17"/>
<text text-anchor="middle" x="1045" y="-670.97" font-family="Arial" font-size="14.00" fill="#cfffac">svg/Ffmpeg.js</text>
</g>
<!-- Svg.js&#45;&gt;svg/Ffmpeg.js -->
<g id="edge41" class="edge">
<title>Svg.js&#45;&gt;svg/Ffmpeg.js</title>
<path fill="none" stroke="#757575" d="M789.01,-1359.95C789.32,-1278.08 795.4,-792.11 895,-694.67 918.05,-672.12 953.55,-666.68 984.12,-667.08"/>
<polygon fill="#757575" stroke="#757575" points="984.16,-670.58 994.27,-667.42 984.39,-663.59 984.16,-670.58"/>
</g>
<!-- svg/Gatsby.js -->
<g id="node50" class="node">
<title>svg/Gatsby.js</title>
<path fill="none" stroke="#cfffac" d="M1086.33,-2244.17C1086.33,-2244.17 1003.67,-2244.17 1003.67,-2244.17 999.83,-2244.17 996,-2240.33 996,-2236.5 996,-2236.5 996,-2228.83 996,-2228.83 996,-2225 999.83,-2221.17 1003.67,-2221.17 1003.67,-2221.17 1086.33,-2221.17 1086.33,-2221.17 1090.17,-2221.17 1094,-2225 1094,-2228.83 1094,-2228.83 1094,-2236.5 1094,-2236.5 1094,-2240.33 1090.17,-2244.17 1086.33,-2244.17"/>
<text text-anchor="middle" x="1045" y="-2228.97" font-family="Arial" font-size="14.00" fill="#cfffac">svg/Gatsby.js</text>
</g>
<!-- Svg.js&#45;&gt;svg/Gatsby.js -->
<g id="edge42" class="edge">
<title>Svg.js&#45;&gt;svg/Gatsby.js</title>
<path fill="none" stroke="#757575" d="M815.12,-1372.37C830.42,-1374.28 848.71,-1379.45 859,-1392.67 915.03,-1464.62 833.46,-2145.36 895,-2212.67 917.41,-2237.18 954.34,-2242.26 985.84,-2241.18"/>
<polygon fill="#757575" stroke="#757575" points="986.05,-2244.67 995.84,-2240.63 985.67,-2237.68 986.05,-2244.67"/>
</g>
<!-- svg/Github.js -->
<g id="node51" class="node">
<title>svg/Github.js</title>
<path fill="none" stroke="#cfffac" d="M1084.83,-2203.17C1084.83,-2203.17 1005.17,-2203.17 1005.17,-2203.17 1001.33,-2203.17 997.5,-2199.33 997.5,-2195.5 997.5,-2195.5 997.5,-2187.83 997.5,-2187.83 997.5,-2184 1001.33,-2180.17 1005.17,-2180.17 1005.17,-2180.17 1084.83,-2180.17 1084.83,-2180.17 1088.67,-2180.17 1092.5,-2184 1092.5,-2187.83 1092.5,-2187.83 1092.5,-2195.5 1092.5,-2195.5 1092.5,-2199.33 1088.67,-2203.17 1084.83,-2203.17"/>
<text text-anchor="middle" x="1045" y="-2187.97" font-family="Arial" font-size="14.00" fill="#cfffac">svg/Github.js</text>
</g>
<!-- Svg.js&#45;&gt;svg/Github.js -->
<g id="edge43" class="edge">
<title>Svg.js&#45;&gt;svg/Github.js</title>
<path fill="none" stroke="#757575" d="M815.11,-1372.38C830.41,-1374.29 848.7,-1379.47 859,-1392.67 912.31,-1460.97 836.46,-2107.78 895,-2171.67 917.75,-2196.5 955.42,-2201.38 987.19,-2200.11"/>
<polygon fill="#757575" stroke="#757575" points="987.5,-2203.6 997.27,-2199.5 987.08,-2196.61 987.5,-2203.6"/>
</g>
<!-- svg/Gitlab.js -->
<g id="node52" class="node">
<title>svg/Gitlab.js</title>
<path fill="none" stroke="#cfffac" d="M1082.83,-2162.17C1082.83,-2162.17 1007.17,-2162.17 1007.17,-2162.17 1003.33,-2162.17 999.5,-2158.33 999.5,-2154.5 999.5,-2154.5 999.5,-2146.83 999.5,-2146.83 999.5,-2143 1003.33,-2139.17 1007.17,-2139.17 1007.17,-2139.17 1082.83,-2139.17 1082.83,-2139.17 1086.67,-2139.17 1090.5,-2143 1090.5,-2146.83 1090.5,-2146.83 1090.5,-2154.5 1090.5,-2154.5 1090.5,-2158.33 1086.67,-2162.17 1082.83,-2162.17"/>
<text text-anchor="middle" x="1045" y="-2146.97" font-family="Arial" font-size="14.00" fill="#cfffac">svg/Gitlab.js</text>
</g>
<!-- Svg.js&#45;&gt;svg/Gitlab.js -->
<g id="edge44" class="edge">
<title>Svg.js&#45;&gt;svg/Gitlab.js</title>
<path fill="none" stroke="#757575" d="M815.09,-1372.39C830.39,-1374.31 848.68,-1379.48 859,-1392.67 909.6,-1457.32 839.46,-2070.21 895,-2130.67 918.26,-2155.99 957.04,-2160.55 989.21,-2159"/>
<polygon fill="#757575" stroke="#757575" points="989.65,-2162.48 999.39,-2158.31 989.18,-2155.5 989.65,-2162.48"/>
</g>
<!-- svg/Graphql.js -->
<g id="node53" class="node">
<title>svg/Graphql.js</title>
<path fill="none" stroke="#cfffac" d="M1089.33,-2121.17C1089.33,-2121.17 1000.67,-2121.17 1000.67,-2121.17 996.83,-2121.17 993,-2117.33 993,-2113.5 993,-2113.5 993,-2105.83 993,-2105.83 993,-2102 996.83,-2098.17 1000.67,-2098.17 1000.67,-2098.17 1089.33,-2098.17 1089.33,-2098.17 1093.17,-2098.17 1097,-2102 1097,-2105.83 1097,-2105.83 1097,-2113.5 1097,-2113.5 1097,-2117.33 1093.17,-2121.17 1089.33,-2121.17"/>
<text text-anchor="middle" x="1045" y="-2105.97" font-family="Arial" font-size="14.00" fill="#cfffac">svg/Graphql.js</text>
</g>
<!-- Svg.js&#45;&gt;svg/Graphql.js -->
<g id="edge45" class="edge">
<title>Svg.js&#45;&gt;svg/Graphql.js</title>
<path fill="none" stroke="#757575" d="M815.08,-1372.4C830.37,-1374.32 848.66,-1379.49 859,-1392.67 906.88,-1453.67 842.45,-2032.64 895,-2089.67 916.69,-2113.21 951.79,-2118.78 982.48,-2118.2"/>
<polygon fill="#757575" stroke="#757575" points="982.84,-2121.69 992.69,-2117.79 982.56,-2114.7 982.84,-2121.69"/>
</g>
<!-- svg/Html.js -->
<g id="node54" class="node">
<title>svg/Html.js</title>
<path fill="none" stroke="#cfffac" d="M1078.83,-2080.17C1078.83,-2080.17 1011.17,-2080.17 1011.17,-2080.17 1007.33,-2080.17 1003.5,-2076.33 1003.5,-2072.5 1003.5,-2072.5 1003.5,-2064.83 1003.5,-2064.83 1003.5,-2061 1007.33,-2057.17 1011.17,-2057.17 1011.17,-2057.17 1078.83,-2057.17 1078.83,-2057.17 1082.67,-2057.17 1086.5,-2061 1086.5,-2064.83 1086.5,-2064.83 1086.5,-2072.5 1086.5,-2072.5 1086.5,-2076.33 1082.67,-2080.17 1078.83,-2080.17"/>
<text text-anchor="middle" x="1045" y="-2064.97" font-family="Arial" font-size="14.00" fill="#cfffac">svg/Html.js</text>
</g>
<!-- Svg.js&#45;&gt;svg/Html.js -->
<g id="edge46" class="edge">
<title>Svg.js&#45;&gt;svg/Html.js</title>
<path fill="none" stroke="#757575" d="M815.07,-1372.41C830.35,-1374.34 848.64,-1379.51 859,-1392.67 949.33,-1507.37 795.9,-1941.46 895,-2048.67 919.22,-2074.87 960.06,-2078.79 992.87,-2076.76"/>
<polygon fill="#757575" stroke="#757575" points="993.52,-2080.21 1003.2,-2075.91 992.95,-2073.24 993.52,-2080.21"/>
</g>
<!-- svg/Ipfs.js -->
<g id="node55" class="node">
<title>svg/Ipfs.js</title>
<path fill="none" stroke="#cfffac" d="M1075.83,-2039.17C1075.83,-2039.17 1014.17,-2039.17 1014.17,-2039.17 1010.33,-2039.17 1006.5,-2035.33 1006.5,-2031.5 1006.5,-2031.5 1006.5,-2023.83 1006.5,-2023.83 1006.5,-2020 1010.33,-2016.17 1014.17,-2016.17 1014.17,-2016.17 1075.83,-2016.17 1075.83,-2016.17 1079.67,-2016.17 1083.5,-2020 1083.5,-2023.83 1083.5,-2023.83 1083.5,-2031.5 1083.5,-2031.5 1083.5,-2035.33 1079.67,-2039.17 1075.83,-2039.17"/>
<text text-anchor="middle" x="1045" y="-2023.97" font-family="Arial" font-size="14.00" fill="#cfffac">svg/Ipfs.js</text>
</g>
<!-- Svg.js&#45;&gt;svg/Ipfs.js -->
<g id="edge47" class="edge">
<title>Svg.js&#45;&gt;svg/Ipfs.js</title>
<path fill="none" stroke="#757575" d="M815.05,-1372.43C830.33,-1374.36 848.61,-1379.53 859,-1392.67 943.9,-1500.07 801.89,-1907.3 895,-2007.67 920.1,-2034.72 962.91,-2037.99 996.23,-2035.5"/>
<polygon fill="#757575" stroke="#757575" points="996.6,-2038.98 1006.23,-2034.56 995.95,-2032.01 996.6,-2038.98"/>
</g>
<!-- svg/Java.js -->
<g id="node56" class="node">
<title>svg/Java.js</title>
<path fill="none" stroke="#cfffac" d="M1078.83,-1998.17C1078.83,-1998.17 1011.17,-1998.17 1011.17,-1998.17 1007.33,-1998.17 1003.5,-1994.33 1003.5,-1990.5 1003.5,-1990.5 1003.5,-1982.83 1003.5,-1982.83 1003.5,-1979 1007.33,-1975.17 1011.17,-1975.17 1011.17,-1975.17 1078.83,-1975.17 1078.83,-1975.17 1082.67,-1975.17 1086.5,-1979 1086.5,-1982.83 1086.5,-1982.83 1086.5,-1990.5 1086.5,-1990.5 1086.5,-1994.33 1082.67,-1998.17 1078.83,-1998.17"/>
<text text-anchor="middle" x="1045" y="-1982.97" font-family="Arial" font-size="14.00" fill="#cfffac">svg/Java.js</text>
</g>
<!-- Svg.js&#45;&gt;svg/Java.js -->
<g id="edge48" class="edge">
<title>Svg.js&#45;&gt;svg/Java.js</title>
<path fill="none" stroke="#757575" d="M815.03,-1372.44C830.3,-1374.38 848.59,-1379.55 859,-1392.67 938.46,-1492.77 807.88,-1873.15 895,-1966.67 919.32,-1992.77 960.16,-1996.7 992.93,-1994.69"/>
<polygon fill="#757575" stroke="#757575" points="993.58,-1998.15 1003.26,-1993.85 993.01,-1991.18 993.58,-1998.15"/>
</g>
<!-- svg/JavaScript.js -->
<g id="node57" class="node">
<title>svg/JavaScript.js</title>
<path fill="none" stroke="#cfffac" d="M1096.33,-1957.17C1096.33,-1957.17 993.67,-1957.17 993.67,-1957.17 989.83,-1957.17 986,-1953.33 986,-1949.5 986,-1949.5 986,-1941.83 986,-1941.83 986,-1938 989.83,-1934.17 993.67,-1934.17 993.67,-1934.17 1096.33,-1934.17 1096.33,-1934.17 1100.17,-1934.17 1104,-1938 1104,-1941.83 1104,-1941.83 1104,-1949.5 1104,-1949.5 1104,-1953.33 1100.17,-1957.17 1096.33,-1957.17"/>
<text text-anchor="middle" x="1045" y="-1941.97" font-family="Arial" font-size="14.00" fill="#cfffac">svg/JavaScript.js</text>
</g>
<!-- Svg.js&#45;&gt;svg/JavaScript.js -->
<g id="edge49" class="edge">
<title>Svg.js&#45;&gt;svg/JavaScript.js</title>
<path fill="none" stroke="#757575" d="M815.01,-1372.46C830.27,-1374.4 848.56,-1379.58 859,-1392.67 933.03,-1485.47 813.87,-1839 895,-1925.67 915.26,-1947.31 946.89,-1953.69 975.79,-1954.08"/>
<polygon fill="#757575" stroke="#757575" points="975.92,-1957.58 985.88,-1953.98 975.85,-1950.58 975.92,-1957.58"/>
</g>
<!-- svg/Jwt.js -->
<g id="node58" class="node">
<title>svg/Jwt.js</title>
<path fill="none" stroke="#cfffac" d="M1074.83,-1916.17C1074.83,-1916.17 1015.17,-1916.17 1015.17,-1916.17 1011.33,-1916.17 1007.5,-1912.33 1007.5,-1908.5 1007.5,-1908.5 1007.5,-1900.83 1007.5,-1900.83 1007.5,-1897 1011.33,-1893.17 1015.17,-1893.17 1015.17,-1893.17 1074.83,-1893.17 1074.83,-1893.17 1078.67,-1893.17 1082.5,-1897 1082.5,-1900.83 1082.5,-1900.83 1082.5,-1908.5 1082.5,-1908.5 1082.5,-1912.33 1078.67,-1916.17 1074.83,-1916.17"/>
<text text-anchor="middle" x="1045" y="-1900.97" font-family="Arial" font-size="14.00" fill="#cfffac">svg/Jwt.js</text>
</g>
<!-- Svg.js&#45;&gt;svg/Jwt.js -->
<g id="edge50" class="edge">
<title>Svg.js&#45;&gt;svg/Jwt.js</title>
<path fill="none" stroke="#757575" d="M815.33,-1372.53C830.51,-1374.51 848.6,-1379.7 859,-1392.67 927.61,-1478.17 819.86,-1804.85 895,-1884.67 920.54,-1911.79 963.92,-1914.89 997.3,-1912.32"/>
<polygon fill="#757575" stroke="#757575" points="997.69,-1915.8 1007.31,-1911.36 997.02,-1908.83 997.69,-1915.8"/>
</g>
<!-- svg/Lombok.js -->
<g id="node59" class="node">
<title>svg/Lombok.js</title>
<path fill="none" stroke="#cfffac" d="M1089.33,-1875.17C1089.33,-1875.17 1000.67,-1875.17 1000.67,-1875.17 996.83,-1875.17 993,-1871.33 993,-1867.5 993,-1867.5 993,-1859.83 993,-1859.83 993,-1856 996.83,-1852.17 1000.67,-1852.17 1000.67,-1852.17 1089.33,-1852.17 1089.33,-1852.17 1093.17,-1852.17 1097,-1856 1097,-1859.83 1097,-1859.83 1097,-1867.5 1097,-1867.5 1097,-1871.33 1093.17,-1875.17 1089.33,-1875.17"/>
<text text-anchor="middle" x="1045" y="-1859.97" font-family="Arial" font-size="14.00" fill="#cfffac">svg/Lombok.js</text>
</g>
<!-- Svg.js&#45;&gt;svg/Lombok.js -->
<g id="edge51" class="edge">
<title>Svg.js&#45;&gt;svg/Lombok.js</title>
<path fill="none" stroke="#757575" d="M815.3,-1372.55C830.47,-1374.54 848.56,-1379.74 859,-1392.67 922.18,-1470.88 825.84,-1770.69 895,-1843.67 917.02,-1866.9 952.13,-1872.46 982.75,-1871.96"/>
<polygon fill="#757575" stroke="#757575" points="983.07,-1875.45 992.93,-1871.57 982.8,-1868.45 983.07,-1875.45"/>
</g>
<!-- svg/Mongodb.js -->
<g id="node60" class="node">
<title>svg/Mongodb.js</title>
<path fill="none" stroke="#cfffac" d="M1093.33,-1834.17C1093.33,-1834.17 996.67,-1834.17 996.67,-1834.17 992.83,-1834.17 989,-1830.33 989,-1826.5 989,-1826.5 989,-1818.83 989,-1818.83 989,-1815 992.83,-1811.17 996.67,-1811.17 996.67,-1811.17 1093.33,-1811.17 1093.33,-1811.17 1097.17,-1811.17 1101,-1815 1101,-1818.83 1101,-1818.83 1101,-1826.5 1101,-1826.5 1101,-1830.33 1097.17,-1834.17 1093.33,-1834.17"/>
<text text-anchor="middle" x="1045" y="-1818.97" font-family="Arial" font-size="14.00" fill="#cfffac">svg/Mongodb.js</text>
</g>
<!-- Svg.js&#45;&gt;svg/Mongodb.js -->
<g id="edge52" class="edge">
<title>Svg.js&#45;&gt;svg/Mongodb.js</title>
<path fill="none" stroke="#757575" d="M815.26,-1372.58C830.42,-1374.58 848.5,-1379.78 859,-1392.67 916.76,-1463.59 831.83,-1736.53 895,-1802.67 916.04,-1824.7 948.88,-1830.8 978.38,-1830.91"/>
<polygon fill="#757575" stroke="#757575" points="978.71,-1834.41 988.64,-1830.72 978.58,-1827.41 978.71,-1834.41"/>
</g>
<!-- svg/Mui.js -->
<g id="node61" class="node">
<title>svg/Mui.js</title>
<path fill="none" stroke="#cfffac" d="M1075.83,-1793.17C1075.83,-1793.17 1014.17,-1793.17 1014.17,-1793.17 1010.33,-1793.17 1006.5,-1789.33 1006.5,-1785.5 1006.5,-1785.5 1006.5,-1777.83 1006.5,-1777.83 1006.5,-1774 1010.33,-1770.17 1014.17,-1770.17 1014.17,-1770.17 1075.83,-1770.17 1075.83,-1770.17 1079.67,-1770.17 1083.5,-1774 1083.5,-1777.83 1083.5,-1777.83 1083.5,-1785.5 1083.5,-1785.5 1083.5,-1789.33 1079.67,-1793.17 1075.83,-1793.17"/>
<text text-anchor="middle" x="1045" y="-1777.97" font-family="Arial" font-size="14.00" fill="#cfffac">svg/Mui.js</text>
</g>
<!-- Svg.js&#45;&gt;svg/Mui.js -->
<g id="edge53" class="edge">
<title>Svg.js&#45;&gt;svg/Mui.js</title>
<path fill="none" stroke="#757575" d="M815.22,-1372.62C830.36,-1374.63 848.44,-1379.83 859,-1392.67 911.34,-1456.3 837.81,-1702.37 895,-1761.67 920.5,-1788.11 963.01,-1791.52 996.11,-1789.23"/>
<polygon fill="#757575" stroke="#757575" points="996.84,-1792.68 1006.49,-1788.31 996.22,-1785.71 996.84,-1792.68"/>
</g>
<!-- svg/MySQL.js -->
<g id="node62" class="node">
<title>svg/MySQL.js</title>
<path fill="none" stroke="#cfffac" d="M1087.83,-1752.17C1087.83,-1752.17 1002.17,-1752.17 1002.17,-1752.17 998.33,-1752.17 994.5,-1748.33 994.5,-1744.5 994.5,-1744.5 994.5,-1736.83 994.5,-1736.83 994.5,-1733 998.33,-1729.17 1002.17,-1729.17 1002.17,-1729.17 1087.83,-1729.17 1087.83,-1729.17 1091.67,-1729.17 1095.5,-1733 1095.5,-1736.83 1095.5,-1736.83 1095.5,-1744.5 1095.5,-1744.5 1095.5,-1748.33 1091.67,-1752.17 1087.83,-1752.17"/>
<text text-anchor="middle" x="1045" y="-1736.97" font-family="Arial" font-size="14.00" fill="#cfffac">svg/MySQL.js</text>
</g>
<!-- Svg.js&#45;&gt;svg/MySQL.js -->
<g id="edge54" class="edge">
<title>Svg.js&#45;&gt;svg/MySQL.js</title>
<path fill="none" stroke="#757575" d="M815.16,-1372.66C830.28,-1374.69 848.36,-1379.89 859,-1392.67 952.84,-1505.37 792.56,-1615.73 895,-1720.67 917.6,-1743.82 953.26,-1749.24 984.03,-1748.67"/>
<polygon fill="#757575" stroke="#757575" points="984.4,-1752.16 994.25,-1748.26 984.12,-1745.16 984.4,-1752.16"/>
</g>
<!-- svg/Mybatis.js -->
<g id="node63" class="node">
<title>svg/Mybatis.js</title>
<path fill="none" stroke="#cfffac" d="M1088.33,-1711.17C1088.33,-1711.17 1001.67,-1711.17 1001.67,-1711.17 997.83,-1711.17 994,-1707.33 994,-1703.5 994,-1703.5 994,-1695.83 994,-1695.83 994,-1692 997.83,-1688.17 1001.67,-1688.17 1001.67,-1688.17 1088.33,-1688.17 1088.33,-1688.17 1092.17,-1688.17 1096,-1692 1096,-1695.83 1096,-1695.83 1096,-1703.5 1096,-1703.5 1096,-1707.33 1092.17,-1711.17 1088.33,-1711.17"/>
<text text-anchor="middle" x="1045" y="-1695.97" font-family="Arial" font-size="14.00" fill="#cfffac">svg/Mybatis.js</text>
</g>
<!-- Svg.js&#45;&gt;svg/Mybatis.js -->
<g id="edge55" class="edge">
<title>Svg.js&#45;&gt;svg/Mybatis.js</title>
<path fill="none" stroke="#757575" d="M815.09,-1372.72C830.19,-1374.78 848.27,-1379.98 859,-1392.67 942.02,-1490.82 804.49,-1588.37 895,-1679.67 917.62,-1702.48 952.93,-1707.98 983.5,-1707.54"/>
<polygon fill="#757575" stroke="#757575" points="983.79,-1711.03 993.66,-1707.18 983.55,-1704.04 983.79,-1711.03"/>
</g>
<!-- svg/Next.js -->
<g id="node64" class="node">
<title>svg/Next.js</title>
<path fill="none" stroke="#cfffac" d="M1078.83,-1670.17C1078.83,-1670.17 1011.17,-1670.17 1011.17,-1670.17 1007.33,-1670.17 1003.5,-1666.33 1003.5,-1662.5 1003.5,-1662.5 1003.5,-1654.83 1003.5,-1654.83 1003.5,-1651 1007.33,-1647.17 1011.17,-1647.17 1011.17,-1647.17 1078.83,-1647.17 1078.83,-1647.17 1082.67,-1647.17 1086.5,-1651 1086.5,-1654.83 1086.5,-1654.83 1086.5,-1662.5 1086.5,-1662.5 1086.5,-1666.33 1082.67,-1670.17 1078.83,-1670.17"/>
<text text-anchor="middle" x="1045" y="-1654.97" font-family="Arial" font-size="14.00" fill="#cfffac">svg/Next.js</text>
</g>
<!-- Svg.js&#45;&gt;svg/Next.js -->
<g id="edge56" class="edge">
<title>Svg.js&#45;&gt;svg/Next.js</title>
<path fill="none" stroke="#757575" d="M815.35,-1372.85C830.34,-1374.96 848.22,-1380.18 859,-1392.67 931.22,-1476.3 816.4,-1561 895,-1638.67 920.21,-1663.58 960.6,-1667.69 992.98,-1666.06"/>
<polygon fill="#757575" stroke="#757575" points="993.45,-1669.53 1003.18,-1665.34 992.96,-1662.55 993.45,-1669.53"/>
</g>
<!-- svg/Node.js -->
<g id="node65" class="node">
<title>svg/Node.js</title>
<path fill="none" stroke="#cfffac" d="M1080.83,-1629.17C1080.83,-1629.17 1009.17,-1629.17 1009.17,-1629.17 1005.33,-1629.17 1001.5,-1625.33 1001.5,-1621.5 1001.5,-1621.5 1001.5,-1613.83 1001.5,-1613.83 1001.5,-1610 1005.33,-1606.17 1009.17,-1606.17 1009.17,-1606.17 1080.83,-1606.17 1080.83,-1606.17 1084.67,-1606.17 1088.5,-1610 1088.5,-1613.83 1088.5,-1613.83 1088.5,-1621.5 1088.5,-1621.5 1088.5,-1625.33 1084.67,-1629.17 1080.83,-1629.17"/>
<text text-anchor="middle" x="1045" y="-1613.97" font-family="Arial" font-size="14.00" fill="#cfffac">svg/Node.js</text>
</g>
<!-- Svg.js&#45;&gt;svg/Node.js -->
<g id="edge57" class="edge">
<title>Svg.js&#45;&gt;svg/Node.js</title>
<path fill="none" stroke="#757575" d="M815.22,-1372.96C830.16,-1375.12 848.04,-1380.34 859,-1392.67 920.45,-1461.81 828.28,-1533.59 895,-1597.67 920.05,-1621.73 959.33,-1626.18 991.27,-1624.9"/>
<polygon fill="#757575" stroke="#757575" points="991.58,-1628.39 1001.36,-1624.31 991.17,-1621.4 991.58,-1628.39"/>
</g>
<!-- svg/Npm.js -->
<g id="node66" class="node">
<title>svg/Npm.js</title>
<path fill="none" stroke="#cfffac" d="M1079.33,-1588.17C1079.33,-1588.17 1010.67,-1588.17 1010.67,-1588.17 1006.83,-1588.17 1003,-1584.33 1003,-1580.5 1003,-1580.5 1003,-1572.83 1003,-1572.83 1003,-1569 1006.83,-1565.17 1010.67,-1565.17 1010.67,-1565.17 1079.33,-1565.17 1079.33,-1565.17 1083.17,-1565.17 1087,-1569 1087,-1572.83 1087,-1572.83 1087,-1580.5 1087,-1580.5 1087,-1584.33 1083.17,-1588.17 1079.33,-1588.17"/>
<text text-anchor="middle" x="1045" y="-1572.97" font-family="Arial" font-size="14.00" fill="#cfffac">svg/Npm.js</text>
</g>
<!-- Svg.js&#45;&gt;svg/Npm.js -->
<g id="edge58" class="edge">
<title>Svg.js&#45;&gt;svg/Npm.js</title>
<path fill="none" stroke="#757575" d="M815.03,-1373.13C829.91,-1375.35 847.78,-1380.57 859,-1392.67 909.74,-1447.39 840.1,-1506.13 895,-1556.67 920.9,-1580.51 960.88,-1584.78 992.91,-1583.48"/>
<polygon fill="#757575" stroke="#757575" points="993.22,-1586.97 1003,-1582.88 992.81,-1579.98 993.22,-1586.97"/>
</g>
<!-- svg/Nuxt.js -->
<g id="node67" class="node">
<title>svg/Nuxt.js</title>
<path fill="none" stroke="#cfffac" d="M1078.83,-1547.17C1078.83,-1547.17 1011.17,-1547.17 1011.17,-1547.17 1007.33,-1547.17 1003.5,-1543.33 1003.5,-1539.5 1003.5,-1539.5 1003.5,-1531.83 1003.5,-1531.83 1003.5,-1528 1007.33,-1524.17 1011.17,-1524.17 1011.17,-1524.17 1078.83,-1524.17 1078.83,-1524.17 1082.67,-1524.17 1086.5,-1528 1086.5,-1531.83 1086.5,-1531.83 1086.5,-1539.5 1086.5,-1539.5 1086.5,-1543.33 1082.67,-1547.17 1078.83,-1547.17"/>
<text text-anchor="middle" x="1045" y="-1531.97" font-family="Arial" font-size="14.00" fill="#cfffac">svg/Nuxt.js</text>
</g>
<!-- Svg.js&#45;&gt;svg/Nuxt.js -->
<g id="edge59" class="edge">
<title>Svg.js&#45;&gt;svg/Nuxt.js</title>
<path fill="none" stroke="#757575" d="M815.07,-1373.47C829.78,-1375.81 847.47,-1381.06 859,-1392.67 899.14,-1433.08 851.79,-1478.55 895,-1515.67 921.71,-1538.61 961.64,-1542.93 993.45,-1541.88"/>
<polygon fill="#757575" stroke="#757575" points="993.65,-1545.37 1003.46,-1541.37 993.3,-1538.38 993.65,-1545.37"/>
</g>
<!-- svg/Python.js -->
<g id="node68" class="node">
<title>svg/Python.js</title>
<path fill="none" stroke="#cfffac" d="M1085.83,-1506.17C1085.83,-1506.17 1004.17,-1506.17 1004.17,-1506.17 1000.33,-1506.17 996.5,-1502.33 996.5,-1498.5 996.5,-1498.5 996.5,-1490.83 996.5,-1490.83 996.5,-1487 1000.33,-1483.17 1004.17,-1483.17 1004.17,-1483.17 1085.83,-1483.17 1085.83,-1483.17 1089.67,-1483.17 1093.5,-1487 1093.5,-1490.83 1093.5,-1490.83 1093.5,-1498.5 1093.5,-1498.5 1093.5,-1502.33 1089.67,-1506.17 1085.83,-1506.17"/>
<text text-anchor="middle" x="1045" y="-1490.97" font-family="Arial" font-size="14.00" fill="#cfffac">svg/Python.js</text>
</g>
<!-- Svg.js&#45;&gt;svg/Python.js -->
<g id="edge60" class="edge">
<title>Svg.js&#45;&gt;svg/Python.js</title>
<path fill="none" stroke="#757575" d="M815.22,-1374.16C829.61,-1376.74 846.93,-1381.99 859,-1392.67 888.81,-1419.04 863.2,-1450.73 895,-1474.67 920.65,-1493.97 956.05,-1499.35 985.9,-1499.72"/>
<polygon fill="#757575" stroke="#757575" points="986.23,-1503.21 996.21,-1499.65 986.19,-1496.21 986.23,-1503.21"/>
</g>
<!-- svg/React.js -->
<g id="node69" class="node">
<title>svg/React.js</title>
<path fill="none" stroke="#cfffac" d="M1082.33,-1465.17C1082.33,-1465.17 1007.67,-1465.17 1007.67,-1465.17 1003.83,-1465.17 1000,-1461.33 1000,-1457.5 1000,-1457.5 1000,-1449.83 1000,-1449.83 1000,-1446 1003.83,-1442.17 1007.67,-1442.17 1007.67,-1442.17 1082.33,-1442.17 1082.33,-1442.17 1086.17,-1442.17 1090,-1446 1090,-1449.83 1090,-1449.83 1090,-1457.5 1090,-1457.5 1090,-1461.33 1086.17,-1465.17 1082.33,-1465.17"/>
<text text-anchor="middle" x="1045" y="-1449.97" font-family="Arial" font-size="14.00" fill="#cfffac">svg/React.js</text>
</g>
<!-- Svg.js&#45;&gt;svg/React.js -->
<g id="edge61" class="edge">
<title>Svg.js&#45;&gt;svg/React.js</title>
<path fill="none" stroke="#757575" d="M815.08,-1375.88C828.92,-1378.97 845.76,-1384.17 859,-1392.67 879.4,-1405.77 873.62,-1422.22 895,-1433.67 923.81,-1449.1 960.09,-1454.22 989.64,-1455.43"/>
<polygon fill="#757575" stroke="#757575" points="989.7,-1458.93 999.79,-1455.7 989.88,-1451.93 989.7,-1458.93"/>
</g>
<!-- svg/Redux.js -->
<g id="node70" class="node">
<title>svg/Redux.js</title>
<path fill="none" stroke="#cfffac" d="M1084.33,-1424.17C1084.33,-1424.17 1005.67,-1424.17 1005.67,-1424.17 1001.83,-1424.17 998,-1420.33 998,-1416.5 998,-1416.5 998,-1408.83 998,-1408.83 998,-1405 1001.83,-1401.17 1005.67,-1401.17 1005.67,-1401.17 1084.33,-1401.17 1084.33,-1401.17 1088.17,-1401.17 1092,-1405 1092,-1408.83 1092,-1408.83 1092,-1416.5 1092,-1416.5 1092,-1420.33 1088.17,-1424.17 1084.33,-1424.17"/>
<text text-anchor="middle" x="1045" y="-1408.97" font-family="Arial" font-size="14.00" fill="#cfffac">svg/Redux.js</text>
</g>
<!-- Svg.js&#45;&gt;svg/Redux.js -->
<g id="edge62" class="edge">
<title>Svg.js&#45;&gt;svg/Redux.js</title>
<path fill="none" stroke="#757575" d="M815.05,-1377.3C836.46,-1381.81 867.61,-1388.12 895,-1392.67 925.61,-1397.75 959.93,-1402.43 987.91,-1405.98"/>
<polygon fill="#757575" stroke="#757575" points="987.55,-1409.46 997.91,-1407.23 988.42,-1402.51 987.55,-1409.46"/>
</g>
<!-- svg/Socketio.js -->
<g id="node71" class="node">
<title>svg/Socketio.js</title>
<path fill="none" stroke="#cfffac" d="M1090.83,-1383.17C1090.83,-1383.17 999.17,-1383.17 999.17,-1383.17 995.33,-1383.17 991.5,-1379.33 991.5,-1375.5 991.5,-1375.5 991.5,-1367.83 991.5,-1367.83 991.5,-1364 995.33,-1360.17 999.17,-1360.17 999.17,-1360.17 1090.83,-1360.17 1090.83,-1360.17 1094.67,-1360.17 1098.5,-1364 1098.5,-1367.83 1098.5,-1367.83 1098.5,-1375.5 1098.5,-1375.5 1098.5,-1379.33 1094.67,-1383.17 1090.83,-1383.17"/>
<text text-anchor="middle" x="1045" y="-1367.97" font-family="Arial" font-size="14.00" fill="#cfffac">svg/Socketio.js</text>
</g>
<!-- Svg.js&#45;&gt;svg/Socketio.js -->
<g id="edge63" class="edge">
<title>Svg.js&#45;&gt;svg/Socketio.js</title>
<path fill="none" stroke="#757575" d="M815.33,-1371.67C854.18,-1371.67 928.01,-1371.67 981.29,-1371.67"/>
<polygon fill="#757575" stroke="#757575" points="981.32,-1375.17 991.32,-1371.67 981.32,-1368.17 981.32,-1375.17"/>
</g>
<!-- svg/Spring.js -->
<g id="node72" class="node">
<title>svg/Spring.js</title>
<path fill="none" stroke="#cfffac" d="M1084.33,-1342.17C1084.33,-1342.17 1005.67,-1342.17 1005.67,-1342.17 1001.83,-1342.17 998,-1338.33 998,-1334.5 998,-1334.5 998,-1326.83 998,-1326.83 998,-1323 1001.83,-1319.17 1005.67,-1319.17 1005.67,-1319.17 1084.33,-1319.17 1084.33,-1319.17 1088.17,-1319.17 1092,-1323 1092,-1326.83 1092,-1326.83 1092,-1334.5 1092,-1334.5 1092,-1338.33 1088.17,-1342.17 1084.33,-1342.17"/>
<text text-anchor="middle" x="1045" y="-1326.97" font-family="Arial" font-size="14.00" fill="#cfffac">svg/Spring.js</text>
</g>
<!-- Svg.js&#45;&gt;svg/Spring.js -->
<g id="edge64" class="edge">
<title>Svg.js&#45;&gt;svg/Spring.js</title>
<path fill="none" stroke="#757575" d="M815.08,-1366.4C836.5,-1362.15 867.65,-1356.17 895,-1351.67 925.65,-1346.62 959.97,-1341.73 987.94,-1337.94"/>
<polygon fill="#757575" stroke="#757575" points="988.49,-1341.4 997.94,-1336.6 987.56,-1334.46 988.49,-1341.4"/>
</g>
<!-- svg/Springboot.js -->
<g id="node73" class="node">
<title>svg/Springboot.js</title>
<path fill="none" stroke="#cfffac" d="M1097.33,-1301.17C1097.33,-1301.17 992.67,-1301.17 992.67,-1301.17 988.83,-1301.17 985,-1297.33 985,-1293.5 985,-1293.5 985,-1285.83 985,-1285.83 985,-1282 988.83,-1278.17 992.67,-1278.17 992.67,-1278.17 1097.33,-1278.17 1097.33,-1278.17 1101.17,-1278.17 1105,-1282 1105,-1285.83 1105,-1285.83 1105,-1293.5 1105,-1293.5 1105,-1297.33 1101.17,-1301.17 1097.33,-1301.17"/>
<text text-anchor="middle" x="1045" y="-1285.97" font-family="Arial" font-size="14.00" fill="#cfffac">svg/Springboot.js</text>
</g>
<!-- Svg.js&#45;&gt;svg/Springboot.js -->
<g id="edge65" class="edge">
<title>Svg.js&#45;&gt;svg/Springboot.js</title>
<path fill="none" stroke="#757575" d="M804.59,-1360.11C824.49,-1345.99 860.46,-1322.54 895,-1310.67 920.3,-1301.97 949.2,-1296.87 974.77,-1293.88"/>
<polygon fill="#757575" stroke="#757575" points="975.2,-1297.36 984.77,-1292.8 974.45,-1290.4 975.2,-1297.36"/>
</g>
<!-- svg/Springsecurity.js -->
<g id="node74" class="node">
<title>svg/Springsecurity.js</title>
<path fill="none" stroke="#cfffac" d="M1107.33,-1260.17C1107.33,-1260.17 982.67,-1260.17 982.67,-1260.17 978.83,-1260.17 975,-1256.33 975,-1252.5 975,-1252.5 975,-1244.83 975,-1244.83 975,-1241 978.83,-1237.17 982.67,-1237.17 982.67,-1237.17 1107.33,-1237.17 1107.33,-1237.17 1111.17,-1237.17 1115,-1241 1115,-1244.83 1115,-1244.83 1115,-1252.5 1115,-1252.5 1115,-1256.33 1111.17,-1260.17 1107.33,-1260.17"/>
<text text-anchor="middle" x="1045" y="-1244.97" font-family="Arial" font-size="14.00" fill="#cfffac">svg/Springsecurity.js</text>
</g>
<!-- Svg.js&#45;&gt;svg/Springsecurity.js -->
<g id="edge66" class="edge">
<title>Svg.js&#45;&gt;svg/Springsecurity.js</title>
<path fill="none" stroke="#757575" d="M797.05,-1360.1C812.94,-1338.26 850.68,-1291.24 895,-1269.67 916.28,-1259.31 941.16,-1253.65 964.42,-1250.66"/>
<polygon fill="#757575" stroke="#757575" points="965.08,-1254.11 974.63,-1249.51 964.3,-1247.16 965.08,-1254.11"/>
</g>
<!-- svg/Typescript.js -->
<g id="node75" class="node">
<title>svg/Typescript.js</title>
<path fill="none" stroke="#cfffac" d="M1095.33,-1219.17C1095.33,-1219.17 994.67,-1219.17 994.67,-1219.17 990.83,-1219.17 987,-1215.33 987,-1211.5 987,-1211.5 987,-1203.83 987,-1203.83 987,-1200 990.83,-1196.17 994.67,-1196.17 994.67,-1196.17 1095.33,-1196.17 1095.33,-1196.17 1099.17,-1196.17 1103,-1200 1103,-1203.83 1103,-1203.83 1103,-1211.5 1103,-1211.5 1103,-1215.33 1099.17,-1219.17 1095.33,-1219.17"/>
<text text-anchor="middle" x="1045" y="-1203.97" font-family="Arial" font-size="14.00" fill="#cfffac">svg/Typescript.js</text>
</g>
<!-- Svg.js&#45;&gt;svg/Typescript.js -->
<g id="edge67" class="edge">
<title>Svg.js&#45;&gt;svg/Typescript.js</title>
<path fill="none" stroke="#757575" d="M793.82,-1359.94C806.02,-1331.86 841.08,-1260.73 895,-1228.67 919.29,-1214.22 949.66,-1208.24 976.63,-1206.14"/>
<polygon fill="#757575" stroke="#757575" points="977.02,-1209.62 986.78,-1205.52 976.59,-1202.64 977.02,-1209.62"/>
</g>
<!-- svg/Vue.js -->
<g id="node76" class="node">
<title>svg/Vue.js</title>
<path fill="none" stroke="#cfffac" d="M1076.83,-1178.17C1076.83,-1178.17 1013.17,-1178.17 1013.17,-1178.17 1009.33,-1178.17 1005.5,-1174.33 1005.5,-1170.5 1005.5,-1170.5 1005.5,-1162.83 1005.5,-1162.83 1005.5,-1159 1009.33,-1155.17 1013.17,-1155.17 1013.17,-1155.17 1076.83,-1155.17 1076.83,-1155.17 1080.67,-1155.17 1084.5,-1159 1084.5,-1162.83 1084.5,-1162.83 1084.5,-1170.5 1084.5,-1170.5 1084.5,-1174.33 1080.67,-1178.17 1076.83,-1178.17"/>
<text text-anchor="middle" x="1045" y="-1162.97" font-family="Arial" font-size="14.00" fill="#cfffac">svg/Vue.js</text>
</g>
<!-- Svg.js&#45;&gt;svg/Vue.js -->
<g id="edge68" class="edge">
<title>Svg.js&#45;&gt;svg/Vue.js</title>
<path fill="none" stroke="#757575" d="M791.95,-1359.7C800.9,-1326.14 831.15,-1230.8 895,-1187.67 924.17,-1167.96 963.92,-1163.18 995.03,-1163.08"/>
<polygon fill="#757575" stroke="#757575" points="995.18,-1166.58 1005.22,-1163.21 995.26,-1159.58 995.18,-1166.58"/>
</g>
<!-- svg/Web3.js -->
<g id="node77" class="node">
<title>svg/Web3.js</title>
<path fill="none" stroke="#cfffac" d="M1082.33,-1137.17C1082.33,-1137.17 1007.67,-1137.17 1007.67,-1137.17 1003.83,-1137.17 1000,-1133.33 1000,-1129.5 1000,-1129.5 1000,-1121.83 1000,-1121.83 1000,-1118 1003.83,-1114.17 1007.67,-1114.17 1007.67,-1114.17 1082.33,-1114.17 1082.33,-1114.17 1086.17,-1114.17 1090,-1118 1090,-1121.83 1090,-1121.83 1090,-1129.5 1090,-1129.5 1090,-1133.33 1086.17,-1137.17 1082.33,-1137.17"/>
<text text-anchor="middle" x="1045" y="-1121.97" font-family="Arial" font-size="14.00" fill="#cfffac">svg/Web3.js</text>
</g>
<!-- Svg.js&#45;&gt;svg/Web3.js -->
<g id="edge69" class="edge">
<title>Svg.js&#45;&gt;svg/Web3.js</title>
<path fill="none" stroke="#757575" d="M790.54,-1360.11C796.28,-1322.16 820.04,-1200.65 895,-1145.67 921.94,-1125.9 959.2,-1120.91 989.72,-1120.85"/>
<polygon fill="#757575" stroke="#757575" points="989.74,-1124.35 999.79,-1121 989.85,-1117.35 989.74,-1124.35"/>
</g>
<!-- svg/WebRtc.js -->
<g id="node78" class="node">
<title>svg/WebRtc.js</title>
<path fill="none" stroke="#cfffac" d="M1088.83,-1096.17C1088.83,-1096.17 1001.17,-1096.17 1001.17,-1096.17 997.33,-1096.17 993.5,-1092.33 993.5,-1088.5 993.5,-1088.5 993.5,-1080.83 993.5,-1080.83 993.5,-1077 997.33,-1073.17 1001.17,-1073.17 1001.17,-1073.17 1088.83,-1073.17 1088.83,-1073.17 1092.67,-1073.17 1096.5,-1077 1096.5,-1080.83 1096.5,-1080.83 1096.5,-1088.5 1096.5,-1088.5 1096.5,-1092.33 1092.67,-1096.17 1088.83,-1096.17"/>
<text text-anchor="middle" x="1045" y="-1080.97" font-family="Arial" font-size="14.00" fill="#cfffac">svg/WebRtc.js</text>
</g>
<!-- Svg.js&#45;&gt;svg/WebRtc.js -->
<g id="edge70" class="edge">
<title>Svg.js&#45;&gt;svg/WebRtc.js</title>
<path fill="none" stroke="#757575" d="M789.67,-1359.9C792.77,-1317.48 809.52,-1171.45 895,-1104.67 919.56,-1085.48 953.63,-1079.84 982.99,-1079.29"/>
<polygon fill="#757575" stroke="#757575" points="983.16,-1082.79 993.16,-1079.29 983.16,-1075.79 983.16,-1082.79"/>
</g>
<!-- svg/Yarn.js -->
<g id="node79" class="node">
<title>svg/Yarn.js</title>
<path fill="none" stroke="#cfffac" d="M1078.83,-1055.17C1078.83,-1055.17 1011.17,-1055.17 1011.17,-1055.17 1007.33,-1055.17 1003.5,-1051.33 1003.5,-1047.5 1003.5,-1047.5 1003.5,-1039.83 1003.5,-1039.83 1003.5,-1036 1007.33,-1032.17 1011.17,-1032.17 1011.17,-1032.17 1078.83,-1032.17 1078.83,-1032.17 1082.67,-1032.17 1086.5,-1036 1086.5,-1039.83 1086.5,-1039.83 1086.5,-1047.5 1086.5,-1047.5 1086.5,-1051.33 1082.67,-1055.17 1078.83,-1055.17"/>
<text text-anchor="middle" x="1045" y="-1039.97" font-family="Arial" font-size="14.00" fill="#cfffac">svg/Yarn.js</text>
</g>
<!-- Svg.js&#45;&gt;svg/Yarn.js -->
<g id="edge71" class="edge">
<title>Svg.js&#45;&gt;svg/Yarn.js</title>
<path fill="none" stroke="#757575" d="M788.99,-1360.1C789.61,-1314.09 798.54,-1142.69 895,-1063.67 922.03,-1041.52 961.53,-1037.07 993.07,-1037.86"/>
<polygon fill="#757575" stroke="#757575" points="993.29,-1041.37 1003.44,-1038.31 993.6,-1034.38 993.29,-1041.37"/>
</g>
<!-- core/PostMethods.js -->
<g id="node83" class="node">
<title>core/PostMethods.js</title>
<path fill="none" stroke="#ff6c60" d="M1107.33,-71.17C1107.33,-71.17 982.67,-71.17 982.67,-71.17 978.83,-71.17 975,-67.33 975,-63.5 975,-63.5 975,-55.83 975,-55.83 975,-52 978.83,-48.17 982.67,-48.17 982.67,-48.17 1107.33,-48.17 1107.33,-48.17 1111.17,-48.17 1115,-52 1115,-55.83 1115,-55.83 1115,-63.5 1115,-63.5 1115,-67.33 1111.17,-71.17 1107.33,-71.17"/>
<text text-anchor="middle" x="1045" y="-55.97" font-family="Arial" font-size="14.00" fill="#ff6c60">core/PostMethods.js</text>
</g>
<!-- core/Module.js&#45;&gt;core/PostMethods.js -->
<g id="edge82" class="edge">
<title>core/Module.js&#45;&gt;core/PostMethods.js</title>
<path fill="none" stroke="#757575" d="M796.26,-141.03C812.47,-121.91 853.52,-86.67 895,-70.67 916.85,-62.24 941.68,-57.26 964.73,-54.74"/>
<polygon fill="#757575" stroke="#757575" points="965.2,-58.21 974.83,-53.78 964.54,-51.24 965.2,-58.21"/>
</g>
<!-- pages.js&#45;&gt;ModulesPage.js -->
<g id="edge87" class="edge">
<title>pages.js&#45;&gt;ModulesPage.js</title>
<path fill="none" stroke="#757575" d="M135.91,-621.99C158.3,-573.67 243.92,-388.93 272.87,-326.45"/>
<polygon fill="#757575" stroke="#757575" points="276.13,-327.75 277.16,-317.2 269.77,-324.8 276.13,-327.75"/>
</g>
<!-- pages.js&#45;&gt;ModulesPart.js -->
<g id="edge88" class="edge">
<title>pages.js&#45;&gt;ModulesPart.js</title>
<path fill="none" stroke="#757575" d="M130.14,-645.46C129.04,-697.02 129.24,-906.73 199,-1057.67 213.67,-1089.41 241.59,-1118.96 261.09,-1137.13"/>
<polygon fill="#757575" stroke="#757575" points="258.86,-1139.84 268.62,-1143.98 263.57,-1134.66 258.86,-1139.84"/>
</g>
<!-- pages.js&#45;&gt;ModulesTemplatePage.js -->
<g id="edge89" class="edge">
<title>pages.js&#45;&gt;ModulesTemplatePage.js</title>
<path fill="none" stroke="#757575" d="M163.11,-633.67C170.84,-633.67 179.47,-633.67 188.46,-633.67"/>
<polygon fill="#757575" stroke="#757575" points="188.74,-637.17 198.74,-633.67 188.74,-630.17 188.74,-637.17"/>
</g>
<!-- router.js&#45;&gt;pages.js -->
<g id="edge90" class="edge">
<title>router.js&#45;&gt;pages.js</title>
<path fill="none" stroke="#757575" d="M755.27,-1410.83C741.69,-1408.41 726.74,-1403.28 717,-1392.67 660.37,-1330.94 719.56,-1282.03 681,-1207.67 543.2,-941.91 243.97,-714.6 155.57,-651.23"/>
<polygon fill="#757575" stroke="#757575" points="157.4,-648.23 147.23,-645.28 153.34,-653.93 157.4,-648.23"/>
</g>
<!-- core/PostMethods.js&#45;&gt;core/Module.js -->
<g id="edge83" class="edge">
<title>core/PostMethods.js&#45;&gt;core/Module.js</title>
<path fill="none" stroke="#757575" d="M974.83,-70.6C949.1,-73.86 920.08,-78.99 895,-88.67 866.36,-99.72 837.94,-119.93 817.74,-134.9"/>
<polygon fill="#757575" stroke="#757575" points="815.54,-132.17 809.61,-140.95 819.72,-137.78 815.54,-132.17"/>
</g>
<!-- main.js -->
<g id="node84" class="node">
<title>main.js</title>
<path fill="none" stroke="#c6c5fe" d="M52.33,-645.17C52.33,-645.17 7.67,-645.17 7.67,-645.17 3.83,-645.17 0,-641.33 0,-637.5 0,-637.5 0,-629.83 0,-629.83 0,-626 3.83,-622.17 7.67,-622.17 7.67,-622.17 52.33,-622.17 52.33,-622.17 56.17,-622.17 60,-626 60,-629.83 60,-629.83 60,-637.5 60,-637.5 60,-641.33 56.17,-645.17 52.33,-645.17"/>
<text text-anchor="middle" x="30" y="-629.97" font-family="Arial" font-size="14.00" fill="#c6c5fe">main.js</text>
</g>
<!-- main.js&#45;&gt;core/Module.js -->
<g id="edge84" class="edge">
<title>main.js&#45;&gt;core/Module.js</title>
<path fill="none" stroke="#757575" d="M33.47,-622.12C49.63,-549.83 147.85,-158.64 404,-38.67 515.49,13.55 568.85,12.11 681,-38.67 703.09,-48.67 700.6,-61.8 717,-79.67 734.03,-98.22 753.95,-118.9 768.18,-133.5"/>
<polygon fill="#757575" stroke="#757575" points="765.95,-136.23 775.44,-140.93 770.95,-131.34 765.95,-136.23"/>
</g>
<!-- main.js&#45;&gt;pages.js -->
<g id="edge85" class="edge">
<title>main.js&#45;&gt;pages.js</title>
<path fill="none" stroke="#757575" d="M60.25,-633.67C68.23,-633.67 77.04,-633.67 85.6,-633.67"/>
<polygon fill="#757575" stroke="#757575" points="85.86,-637.17 95.86,-633.67 85.86,-630.17 85.86,-637.17"/>
</g>
<!-- main.js&#45;&gt;router.js -->
<g id="edge86" class="edge">
<title>main.js&#45;&gt;router.js</title>
<path fill="none" stroke="#757575" d="M31.15,-645.34C32.57,-708.22 47.31,-1009.84 199,-1176.67 351.18,-1344.04 638.32,-1394.8 745.37,-1408.29"/>
<polygon fill="#757575" stroke="#757575" points="745.11,-1411.79 755.46,-1409.52 745.95,-1404.84 745.11,-1411.79"/>
</g>
</g>
</svg>
